<svg width="65" height="35" viewBox="0 0 65 35" fill="none" xmlns="http://www.w3.org/2000/svg">
<path d="M33.4985 4.74757C33.3159 4.58839 33.082 4.5005 32.8398 4.5005H14.7597C14.4296 4.5005 14.121 4.66358 13.9345 4.93604L9.14447 11.936C8.935 12.2417 8.91205 12.6392 9.08539 12.9673C9.25824 13.2954 9.59857 13.5005 9.96966 13.5005H40.8398C41.2563 13.5005 41.6293 13.2427 41.7758 12.8521C41.9223 12.4624 41.812 12.022 41.4985 11.7476L33.4985 4.74757ZM21.4999 11.5005H11.8657L15.287 6.5005H21.4999V11.5005ZM23.4999 11.5005V6.5005H32.4638L38.1782 11.5005H23.4999Z" fill="black"/>
<path d="M64.4242 12.1249C64.407 12.0828 64.3766 12.0503 64.3541 12.0112C64.3145 11.9423 64.2768 11.8731 64.2222 11.8157C64.1865 11.778 64.1418 11.7532 64.1006 11.7214C64.0436 11.6773 63.9888 11.6326 63.9227 11.6015C63.8726 11.5778 63.8178 11.5688 63.7635 11.5537C63.7105 11.5388 63.6628 11.5124 63.6064 11.5064L63.2433 11.4681C63.4061 10.9998 63.5 10.5062 63.5 10.0005C63.5 7.51905 61.4814 5.50049 59 5.50049C57.3926 5.50049 55.9395 6.35889 55.1416 7.68897C54.7798 7.56495 54.394 7.50049 54 7.50049C52.369 7.50049 51.0063 8.62714 50.6199 10.1396L47.7225 9.83466L60.9902 2.37159C61.4717 2.10108 61.6426 1.4917 61.3716 1.01026C61.1006 0.528814 60.4897 0.355963 60.0098 0.6294L44.6354 9.27747L35.1689 0.75733C34.9854 0.592291 34.7471 0.500494 34.5 0.500494H12.5C12.1655 0.500494 11.8535 0.667486 11.668 0.945806L5.84033 9.68702L1.12842 11.5718C0.749023 11.7241 0.5 12.0913 0.5 12.5005V23.5005V26.5005C0.5 27.0532 0.947754 27.5005 1.5 27.5005H5.56946C6.06409 31.4404 9.42822 34.5005 13.5 34.5005C17.5718 34.5005 20.9359 31.4404 21.4305 27.5005H43.5695C44.0641 31.4404 47.4282 34.5005 51.5 34.5005C55.5718 34.5005 58.9359 31.4404 59.4305 27.5005H63.5C64.0522 27.5005 64.5 27.0532 64.5 26.5005V23.5005V18.5005V12.5005C64.5 12.3676 64.4717 12.2416 64.4242 12.1249ZM54 9.50049C54.3628 9.50049 54.7031 9.62452 54.958 9.8501C55.2178 10.0776 55.5776 10.1577 55.9092 10.0571C56.2412 9.95753 56.4971 9.69288 56.5864 9.35792C56.8779 8.26417 57.8706 7.50049 59 7.50049C60.3784 7.50049 61.5 8.62159 61.5 10.0005C61.5 10.4419 61.3828 10.8716 61.1646 11.2456L52.8625 10.3756L52.647 10.353C52.8893 9.84925 53.4048 9.50049 54 9.50049ZM5.73187 24.6057C5.67914 24.8213 5.64105 25.0407 5.60675 25.261C5.59418 25.3415 5.57123 25.4193 5.56104 25.5005H2.5V24.5005H5.75195C5.74304 24.535 5.74036 24.5711 5.73187 24.6057ZM13.5 32.5005C10.1914 32.5005 7.5 29.8091 7.5 26.5005C7.5 25.5952 7.69531 24.7329 8.08447 23.9273C9.08301 21.814 11.1582 20.5005 13.5 20.5005C15.8418 20.5005 17.917 21.814 18.9194 23.936C19.3047 24.7329 19.5 25.5952 19.5 26.5005C19.5 29.8091 16.8086 32.5005 13.5 32.5005ZM43.7319 24.6057C43.6791 24.8213 43.6411 25.0407 43.6068 25.261C43.5942 25.3415 43.5712 25.4193 43.561 25.5005H21.439C21.4291 25.4215 21.4066 25.3456 21.3944 25.2672C21.3599 25.0437 21.3212 24.8216 21.2677 24.6033C21.2594 24.5695 21.2568 24.5342 21.248 24.5005H43.752C43.743 24.535 43.7404 24.5711 43.7319 24.6057ZM51.5 32.5005C48.1914 32.5005 45.5 29.8091 45.5 26.5005C45.5 25.5952 45.6953 24.7329 46.0845 23.9273C47.083 21.814 49.1582 20.5005 51.5 20.5005C53.8418 20.5005 55.917 21.814 56.9194 23.936C57.3047 24.7329 57.5 25.5952 57.5 26.5005C57.5 29.8091 54.8086 32.5005 51.5 32.5005ZM62.5 25.5005H59.439C59.4291 25.4215 59.4066 25.3456 59.3944 25.2672C59.3599 25.0437 59.3212 24.8216 59.2677 24.6033C59.2594 24.5695 59.2568 24.5342 59.248 24.5005H62.5V25.5005ZM62.5 22.5005H58.4253C58.3799 22.4212 58.3232 22.3518 58.2755 22.2744C58.1882 22.1331 58.0971 21.9963 58.0022 21.8618C57.8849 21.6956 57.7625 21.5357 57.634 21.3803C57.5306 21.2551 57.4259 21.1329 57.3157 21.015C57.178 20.8676 57.034 20.7288 56.8863 20.5931C56.7692 20.4855 56.6524 20.3786 56.5294 20.2786C56.3721 20.1508 56.2079 20.0342 56.0416 19.9192C55.9138 19.8308 55.788 19.7406 55.6551 19.6599C55.4781 19.5524 55.2937 19.4591 55.1085 19.3658C54.9738 19.2979 54.8422 19.2257 54.7034 19.1655C54.5046 19.0793 54.2982 19.0106 54.0919 18.9406C53.9564 18.8947 53.8245 18.8413 53.686 18.8026C53.4523 18.7374 53.2115 18.6936 52.9704 18.6494C52.8511 18.6275 52.7356 18.5952 52.6147 18.5787C52.2494 18.5287 51.8777 18.5005 51.5 18.5005C51.1225 18.5005 50.751 18.5286 50.3857 18.5786C50.2631 18.5953 50.1459 18.628 50.025 18.6503C49.7858 18.6942 49.5466 18.7376 49.3148 18.8024C49.1738 18.8417 49.0396 18.8961 48.9016 18.9429C48.6985 19.0119 48.4952 19.0792 48.2994 19.1641C48.1556 19.2263 48.0193 19.3011 47.8798 19.3716C47.7007 19.4622 47.5221 19.5522 47.3507 19.656C47.2108 19.7408 47.0784 19.8355 46.9441 19.9288C46.786 20.0386 46.6295 20.1492 46.4796 20.2706C46.3484 20.3769 46.2242 20.4907 46.0997 20.6055C45.961 20.7335 45.8253 20.8637 45.6956 21.002C45.5775 21.1278 45.4655 21.2586 45.3552 21.3926C45.2347 21.5391 45.1193 21.6893 45.0087 21.8453C44.908 21.9874 44.8116 22.1321 44.7196 22.2817C44.6735 22.3566 44.6186 22.4238 44.5747 22.5005H20.4253C20.3799 22.4212 20.3232 22.3518 20.2755 22.2744C20.1882 22.1331 20.0971 21.9963 20.0022 21.8618C19.8849 21.6956 19.7625 21.5357 19.634 21.3803C19.5306 21.2551 19.4259 21.1329 19.3157 21.015C19.178 20.8676 19.034 20.7288 18.8863 20.5931C18.7692 20.4855 18.6524 20.3786 18.5294 20.2786C18.3721 20.1508 18.2079 20.0342 18.0416 19.9192C17.9138 19.8308 17.788 19.7406 17.6551 19.6599C17.4781 19.5524 17.2937 19.4591 17.1085 19.3658C16.9738 19.2979 16.8422 19.2257 16.7034 19.1655C16.5046 19.0793 16.2982 19.0106 16.0919 18.9406C15.9564 18.8947 15.8245 18.8413 15.686 18.8026C15.4523 18.7374 15.2115 18.6936 14.9704 18.6494C14.8511 18.6275 14.7356 18.5952 14.6147 18.5787C14.2494 18.5287 13.8777 18.5005 13.5 18.5005C13.1225 18.5005 12.751 18.5286 12.3857 18.5786C12.2631 18.5953 12.1459 18.628 12.025 18.6503C11.7858 18.6942 11.5466 18.7376 11.3148 18.8024C11.1738 18.8417 11.0396 18.8961 10.9016 18.9429C10.6985 19.0119 10.4952 19.0792 10.2994 19.1641C10.1556 19.2263 10.0193 19.3011 9.87982 19.3716C9.70074 19.4622 9.52209 19.5522 9.35071 19.656C9.21075 19.7408 9.07843 19.8355 8.94409 19.9288C8.78601 20.0386 8.62946 20.1492 8.47961 20.2706C8.34839 20.3769 8.22418 20.4907 8.09967 20.6055C7.961 20.7335 7.82532 20.8637 7.69556 21.002C7.57745 21.1278 7.46552 21.2586 7.35522 21.3926C7.23474 21.5391 7.11932 21.6893 7.00867 21.8453C6.90796 21.9874 6.81165 22.1321 6.7196 22.2817C6.67346 22.3566 6.61859 22.4238 6.57471 22.5005H2.5V13.1773L6.87158 11.4292C7.05908 11.354 7.21973 11.2232 7.33203 11.0552L13.0352 2.50049H34.1162L43.8311 11.2437C43.8486 11.2596 43.8713 11.2675 43.89 11.282C43.9426 11.3229 43.9964 11.3602 44.0554 11.3897C44.0883 11.4061 44.1215 11.4183 44.1559 11.4309C44.2146 11.4526 44.2739 11.4685 44.3357 11.4788C44.356 11.4822 44.3744 11.4925 44.395 11.4946L51.3857 12.2299C51.3931 12.2308 51.3993 12.2351 51.4067 12.2358L57.5 12.8734V16.5005C57.5 16.9097 57.749 17.2769 58.1284 17.4292L62.5 19.1779V22.5005ZM62.5 17.0239L59.5 15.8237V13.0834L62.5 13.3989V17.0239Z" fill="black"/>
<path d="M51.5 22.5005C49.2944 22.5005 47.5 24.2944 47.5 26.5005C47.5 28.7065 49.2944 30.5005 51.5 30.5005C53.7056 30.5005 55.5 28.7065 55.5 26.5005C55.5 24.2944 53.7056 22.5005 51.5 22.5005ZM51.5 28.5005C50.397 28.5005 49.5 27.603 49.5 26.5005C49.5 25.3979 50.397 24.5005 51.5 24.5005C52.603 24.5005 53.5 25.3979 53.5 26.5005C53.5 27.603 52.603 28.5005 51.5 28.5005Z" fill="black"/>
<path d="M13.5 22.5005C11.2944 22.5005 9.5 24.2944 9.5 26.5005C9.5 28.7065 11.2944 30.5005 13.5 30.5005C15.7056 30.5005 17.5 28.7065 17.5 26.5005C17.5 24.2944 15.7056 22.5005 13.5 22.5005ZM13.5 28.5005C12.397 28.5005 11.5 27.603 11.5 26.5005C11.5 25.3979 12.397 24.5005 13.5 24.5005C14.603 24.5005 15.5 25.3979 15.5 26.5005C15.5 27.603 14.603 28.5005 13.5 28.5005Z" fill="black"/>
<path d="M26.5 15.5005H24.5C23.9478 15.5005 23.5 15.9478 23.5 16.5005C23.5 17.0532 23.9478 17.5005 24.5 17.5005H26.5C27.0522 17.5005 27.5 17.0532 27.5 16.5005C27.5 15.9478 27.0522 15.5005 26.5 15.5005Z" fill="black"/>
</svg>
