<svg width="61" height="40" viewBox="0 0 61 40" fill="none" xmlns="http://www.w3.org/2000/svg">
<path fill-rule="evenodd" clip-rule="evenodd" d="M60 28C59.9967 31.3123 57.3123 33.9967 54 34H53V38.01H56.764L58.553 37.11C59.0473 36.8631 59.6481 37.0637 59.895 37.558C60.1419 38.0523 59.9413 38.6531 59.447 38.9L57.447 39.9C57.3077 39.9675 57.1547 40.0017 57 40H30C29.8445 39.9986 29.6914 39.9609 29.553 39.89L27.553 38.89C27.0587 38.6431 26.8581 38.0423 27.105 37.548C27.3519 37.0537 27.9527 36.8531 28.447 37.1L30.236 38H34V34H33C29.7381 33.8782 27.1218 31.2619 27 28V23.631L12.82 16.88C10.9511 19.6869 7.34538 20.7605 4.24543 19.4332C1.14548 18.1058 -0.565926 14.7555 0.17559 11.4659C0.917106 8.17622 3.90038 5.8841 7.27001 6.01506C10.6396 6.14601 13.436 8.66274 13.92 12H27C27.0291 9.80302 28.803 8.02907 31 8H37V6C32 5.971 27.33 5.766 23.758 5.409C18.045 4.838 17 4.149 17 3C17 1.851 18.045 1.162 23.758 0.591C27.568 0.21 32.625 0 38 0C43.375 0 48.432 0.21 52.242 0.591C57.955 1.162 59 1.851 59 3C59 4.149 57.955 4.838 52.242 5.414C48.67 5.771 44 5.976 39 6V8H44C52.7884 8.11525 59.8848 15.2116 60 24V28ZM38 2C32.2255 1.90322 26.4518 2.23748 20.727 3C26.4518 3.76252 32.2255 4.09678 38 4C43.7745 4.09678 49.5482 3.76252 55.273 3C49.5482 2.23748 43.7745 1.90322 38 2ZM57.635 21H47C45.9184 20.9463 45.0537 20.0816 45 19V10.054C51.1028 10.6634 56.1621 15.0464 57.635 21ZM11.9 14H11.426L11.84 14.2C11.8479 14.1676 11.8583 14.1368 11.8687 14.1064C11.8807 14.0712 11.8925 14.0365 11.9 14ZM7 18C4.36887 17.9995 2.18834 15.9599 2.01223 13.3347C1.83612 10.7094 3.7247 8.3969 6.33218 8.04494C8.93966 7.69298 11.3738 9.42203 11.9 12H7C6.53496 12.0027 6.13317 12.3257 6.03052 12.7792C5.92787 13.2328 6.15145 13.6973 6.57 13.9L10.97 16C10.0344 17.2534 8.56408 17.9942 7 18ZM13.92 14C13.8706 14.3643 13.7923 14.7241 13.686 15.076L27 21.416V14H13.92ZM29 28V12C29.0279 10.9072 29.9072 10.0279 31 10H43V19C43.0527 21.1869 44.8131 22.9473 47 23H57.946L57.9512 23.0659C57.9756 23.376 58 23.6862 58 24V28C58 30.2091 56.2091 32 54 32H33C30.8369 31.8927 29.1073 30.1631 29 28ZM36 38H51V34H36V38Z" fill="black"/>
<path d="M35 18V21C35 21.5523 35.4477 22 36 22C36.5523 22 37 21.5523 37 21V18H40C40.5523 18 41 17.5523 41 17C41 16.4477 40.5523 16 40 16H37V13C37 12.4477 36.5523 12 36 12C35.4477 12 35 12.4477 35 13V16H32C31.4477 16 31 16.4477 31 17C31 17.5523 31.4477 18 32 18H35Z" fill="black"/>
<path d="M56 27V26C56 25.4477 55.5523 25 55 25C54.4477 25 54 25.4477 54 26V27C54.0326 27.2739 53.9377 27.5476 53.7427 27.7427C53.5476 27.9377 53.2739 28.0326 53 28H33C32.4477 28 32 28.4477 32 29C32 29.5523 32.4477 30 33 30H53C53.804 30.0282 54.5836 29.7212 55.1524 29.1524C55.7212 28.5836 56.0282 27.804 56 27Z" fill="black"/>
</svg>
