<svg width="66" height="46" viewBox="0 0 66 46" fill="none" xmlns="http://www.w3.org/2000/svg">
<path fill-rule="evenodd" clip-rule="evenodd" d="M7.99998 15C7.49998 15 7.09998 15.4 7.09998 15.9C7.09998 16.4 7.49998 16.8 7.99998 16.9H8.29998C8.09998 17.5 7.99998 18.1 7.99998 18.8C7.99998 22.6 11.1 25.6 14.8 25.6C18.6 25.6 21.6 22.5 21.6 18.8C21.6 15 18.5 12 14.8 12C12.5 12 10.4 13.2 9.19998 15H7.99998ZM19.8 18.7C19.8 21.4 17.6 23.6 14.9 23.6C12.2 23.6 9.99998 21.4 9.99998 18.7C9.99998 16 12.2 13.8 14.9 13.8C17.6 13.8 19.8 16 19.8 18.7Z" fill="black"/>
<path fill-rule="evenodd" clip-rule="evenodd" d="M46 21.3H54.5C55 21.3 55.5 21 55.8 20.6C56.1 20.1 56.1 19.5 55.9 19L53.2 13.4C53 12.9 52.5 12.6 52 12.6H47.3C46.6 12.6 46 13.2 46 13.9V21.3ZM47.9 14.5H51.7L54.1 19.5H47.9V14.5Z" fill="black"/>
<path fill-rule="evenodd" clip-rule="evenodd" d="M54.5 38.3C54.5 36.5 53.1 35.1 51.3 35.1C49.5 35.1 48 36.6 48.1 38.3C48.1 40.1 49.5 41.5 51.3 41.5C53.1 41.5 54.5 40.1 54.5 38.3ZM52.7 38.3C52.7 39.1 52.1 39.7 51.3 39.7C50.5 39.7 49.9 39.1 49.9 38.3C49.9 37.5 50.5 36.9 51.3 36.9C52.1 36.9 52.7 37.5 52.7 38.3Z" fill="black"/>
<path fill-rule="evenodd" clip-rule="evenodd" d="M11.5 38.4C11.5 40.2 12.9 41.6 14.7 41.6C16.5 41.6 18 40.1 17.9 38.4C17.9 36.6 16.5 35.2 14.7 35.2C12.9 35.2 11.5 36.6 11.5 38.4ZM13.3 38.4C13.3 37.6 13.9 37 14.7 37C15.5 37 16.1 37.6 16.1 38.4C16.1 39.2 15.5 39.8 14.7 39.8C13.9 39.8 13.3 39.2 13.3 38.4Z" fill="black"/>
<path fill-rule="evenodd" clip-rule="evenodd" d="M18 18.7C18 17 16.6 15.6 14.9 15.6C13.2 15.6 11.8 17 11.8 18.7C11.8 20.4 13.2 21.8 14.9 21.8C16.6 21.8 18 20.4 18 18.7ZM16.2 18.7C16.2 19.4 15.6 20 14.9 20C14.2 20 13.6 19.4 13.6 18.7C13.6 18 14.2 17.4 14.9 17.4C15.6 17.4 16.2 18 16.2 18.7Z" fill="black"/>
<path d="M27.3 14V9.00001H25.6C25.1 9.00001 24.7 8.60001 24.7 8.10001C24.7 7.60001 25.1 7.20001 25.6 7.20001H41.2C41.7 7.20001 42.1 7.60001 42.1 8.10001C42.1 8.60001 41.7 9.00001 41.2 9.00001H38.8V14H37V9.00001H34V14H32.1V9.00001H29.1V14H27.3Z" fill="black"/>
<path d="M47.1 23.6H50C50.5 23.6 50.9 24 50.9 24.5C50.9 25 50.5 25.4 50 25.4H47.1C46.6 25.4 46.2 25 46.2 24.5C46.1 24 46.5 23.6 47.1 23.6Z" fill="black"/>
<path fill-rule="evenodd" clip-rule="evenodd" d="M63.7 30.1H64.2C64.7 30.1 65.2 29.7 65.2 29.2C65.2 28.7 64.8 28.3 64.3 28.3H63.8V23.7C63.8 23.4 63.8 22.9 55.6 10.7C55.2 9.9 54.4 9.4 53.5 9.4H52.3L51.1 6H47.2L45.9 9.5H42.6C41.3 9.5 40.3 10.5 40.3 11.8V15H27.5C27 15 26.6 15.4 26.6 15.9C26.6 16.4 27 16.8 27.5 16.8H31.4V34.1C31.4 34.6 31.8 35 32.3 35C32.8 35 33.2 34.6 33.2 34.1V33.8H40.4V36.1H21.9C20.9 33 18.1 30.8 14.7 30.8C11.3 30.8 8.50001 33 7.50001 36.1H2.40001V16.8H4.30001C4.20001 17.4 4.10001 18.1 4.10001 18.7C4.10001 24.7 9.00001 29.5 14.9 29.5C20.9 29.5 25.7 24.6 25.7 18.7C25.7 13 21.2 8.3 15.5 8L15.4 6.2L7.60001 7.5L7.90001 11.3L15.8 11.5L15.7 9.9C18.9 10.1 21.7 12.2 23 15H22.4C21.9 15 21.3 15.5 21.3 16C21.3 16.5 21.7 16.9 22.2 16.9H23.4C23.5 17.5 23.6 18.2 23.6 18.8C23.6 23.7 19.6 27.7 14.7 27.7C9.80001 27.7 5.80001 23.7 5.80001 18.8C5.80001 17.3 6.20001 15.7 7.00001 14.4C7.30001 13.9 7.10001 13.4 6.70001 13.1C6.20001 12.8 5.70001 13 5.40001 13.4C5.16512 13.7915 4.99153 14.2443 4.83124 14.6624L4.83123 14.6624C4.78681 14.7783 4.74341 14.8915 4.70001 15H2.20001C1.20001 15 0.400009 15.8 0.400009 16.8V36.1C0.400009 37.1 1.20001 37.9 2.20001 37.9H7.10001V38.3C7.10001 42.5 10.5 45.9 14.7 45.9C18.8 45.9 22.2 42.5 22.2 38.3V37.9H40.4H43.7V38.3C43.7 42.5 47.1 45.9 51.3 45.9C55.4 45.9 58.8 42.5 58.8 38.3V37.9H61.9C62.9 37.9 63.7 37.1 63.7 36.1V30.1ZM9.60001 9L13.7 8.3L13.8 9.6L9.60001 9.5V9ZM14.7 32.7C11.6 32.7 9.00002 35.3 9.00002 38.4C9.00002 41.5 11.6 44.1 14.7 44.1C17.8 44.1 20.4 41.5 20.4 38.4C20.4 35.2 17.9 32.7 14.7 32.7ZM48.5 7.9H49.8L50.4 9.4H48L48.5 7.9ZM51.3 44.1C54.4 44.1 57 41.5 57 38.4C57 35.3 54.4 32.7 51.3 32.7C48.2 32.7 45.6 35.3 45.6 38.4C45.6 41.5 48.1 44.1 51.3 44.1ZM33.2 25.2H40.4V27.7H33.2V25.2ZM40.4 23.3V20.8H33.3V23.3H40.4ZM40.4 29.4V31.9H33.2V29.4H40.4ZM33.2 16.8V19H40.3V16.8H33.2ZM58.7 27.4H61.8V28.3H61.1C60.6 28.3 60.2 28.7 60.2 29.2C60.2 29.7 60.6 30.1 61.1 30.1H61.8V36.1H58.4C57.4 33 54.6 30.8 51.2 30.8C47.8 30.8 45 33 44 36.1H42.2L42.1 11.8C42.1 11.5 42.3 11.3 42.6 11.3H53.5C53.7 11.3 53.8 11.4 53.9 11.6L54 11.7C56.8 15.9 61.3 22.7 61.9 23.9V25.6H58.7C58.2 25.6 57.8 26 57.8 26.5C57.8 27 58.2 27.4 58.7 27.4Z" fill="black"/>
<path d="M48.3 4.10002V1.30002C48.3 0.800024 48.7 0.400024 49.2 0.400024C49.7 0.400024 50.1 0.800024 50.1 1.30002V4.10002C50.1 4.60002 49.7 5.00002 49.2 5.00002C48.7 5.00002 48.3 4.60002 48.3 4.10002Z" fill="black"/>
<path d="M52.1 5.30002C51.9 5.30002 51.6 5.20002 51.4 5.00002C51 4.60002 51 4.00002 51.4 3.70002L53.4 1.70002C53.8 1.30002 54.4 1.30002 54.7 1.70002C55.1 2.10002 55.1 2.70002 54.7 3.00002L52.7 5.00002C52.6 5.20002 52.3 5.30002 52.1 5.30002Z" fill="black"/>
<path d="M46.4 5.30002C46.2 5.30002 45.9 5.20002 45.7 5.00002L43.7 3.00002C43.3 2.60002 43.3 2.00002 43.7 1.70002C44.1 1.30002 44.7 1.30002 45 1.70002L47 3.70002C47.4 4.10002 47.4 4.70002 47 5.00002C46.8 5.20002 46.6 5.30002 46.4 5.30002Z" fill="black"/>
</svg>
