<svg width="56" height="64" viewBox="0 0 56 64" fill="none" xmlns="http://www.w3.org/2000/svg">
<path fill-rule="evenodd" clip-rule="evenodd" d="M31.9 5.8C29.1 6.3 27 8.8 27 11.7C27 15 29.7 17.7 33.1 17.7C33.7 17.7 34.1 17.3 34.1 16.7C34.1 16.1 33.7 15.7 33.1 15.7C30.9 15.8 29 14 29 11.8C28.9 9.6 30.7 7.7 32.9 7.7C33.5 7.7 33.9 7.3 33.9 6.7C33.9 4.5 35.7 2.7 37.9 2.7C40.1 2.7 41.9 4.5 41.9 6.7C41.9 7.3 42.3 7.7 42.9 7.7C45.1 7.8 46.8 9.6 46.8 11.8C46.7 14 44.9 15.7 42.7 15.7C42.1 15.7 41.7 16.1 41.7 16.7C41.7 17.3 42.1 17.7 42.7 17.7C45.6 17.7 48.1 15.6 48.6 12.8C49.2 9.5 47.1 6.4 43.8 5.8C43.4 3.1 41.3 1.1 38.7 0.699998C35.4 0.299998 32.4 2.5 31.9 5.8ZM43.4 19.8C43.6 19.3 43.3 18.7 42.8 18.5C42.2 18.3 41.7 18.6 41.5 19.2L38.9 26.4V26.5C38.8 27 39.1 27.6 39.6 27.7C40.1 27.8 40.6 27.5 40.8 27L43.4 19.8ZM44.4 35H42.1V29.4C42.1 28.8 41.7 28.4 41.1 28.4H34.5C33.9 28.4 33.5 28.8 33.5 29.4V35H29C29 34.4 28.6 34 28 34C27.4 34 27 34.4 27 35H15.8C15.8 34.4 15.4 34 14.8 34C14.2 34 13.8 34.4 13.8 35H11.5C5.49999 35.2 0.799989 40.2 0.999989 46.2C1.19999 51.9 5.79999 56.6 11.5 56.7H13.8V62.3C13.8 62.9 14.2 63.3 14.8 63.3C15.4 63.3 15.8 62.9 15.8 62.3V56.7H27C27 57.3 27.4 57.7 28 57.7C28.6 57.7 29 57.3 29 56.7H40.2V62.3C40.2 62.9 40.6 63.3 41.2 63.3C41.8 63.3 42.2 62.9 42.2 62.3V56.7H44.5C50.5 56.9 55.5 52.2 55.7 46.2C55.9 40.2 51.2 35.2 45.2 35H44.4ZM13.8 54.7H11.5C6.59999 54.5 2.79999 50.4 2.89999 45.5C3.09999 40.8 6.79999 37.1 11.5 36.9H13.8V54.7ZM15.8 54.7H27V37H15.8V54.7ZM40.2 54.7H29V37H40.2V54.7ZM35.6 30.4V35H40.2V30.4H35.6ZM44.4 54.7H42.1V37H44.4C49.3 36.8 53.4 40.7 53.6 45.6C53.8 50.5 49.9 54.6 45 54.8C44.8 54.7 44.6 54.7 44.4 54.7ZM34.2 19.1L36.8 26.3C37 26.8 36.8 27.4 36.3 27.6C35.8 27.8 35.2 27.6 35 27.1V27L32.4 19.8C32.2 19.3 32.6 18.7 33.1 18.6C33.5 18.4 34 18.7 34.2 19.1Z" fill="black"/>
</svg>
