<svg width="57" height="38" viewBox="0 0 57 38" fill="none" xmlns="http://www.w3.org/2000/svg">
<path fill-rule="evenodd" clip-rule="evenodd" d="M42.0112 4V3C42.0122 2.191 42.3503 1.396 42.9352 0.835C43.4722 0.32 44.2023 0.015 44.9533 0.001C44.9762 0 44.9983 0 45.0213 0C45.7913 0.004 46.5633 0.317 47.1203 0.866C47.6823 1.422 48.0103 2.206 48.0112 3V3.999C48.5703 3.999 49.1292 4 49.6883 4C50.5363 4.003 51.3862 4.225 52.1413 4.625C53.6113 5.404 54.7002 6.82 55.3182 8.349C55.7652 9.457 55.9933 10.654 56.0103 11.856C56.0112 11.9 56.0112 11.944 56.0112 11.988C56.0142 18.661 56.0212 25.334 56.0112 32.007C56.0083 32.644 55.6852 33.271 55.1553 33.641C54.8232 33.873 54.4212 34 54.0122 34H51.9092C51.8272 34.402 51.6972 34.793 51.5202 35.161C50.9182 36.416 49.7713 37.399 48.4313 37.795C47.3453 38.117 46.1523 38.057 45.1003 37.621C43.9743 37.155 43.0312 36.263 42.5023 35.161C42.3242 34.792 42.1953 34.401 42.1143 34H39.0112H13.9093C13.8282 34.401 13.6983 34.792 13.5203 35.161C12.9932 36.259 12.0512 37.151 10.9292 37.618C10.0352 37.991 9.03125 38.093 8.08125 37.914C7.13125 37.735 6.24025 37.274 5.54025 36.598C4.81925 35.903 4.31425 34.983 4.11225 34.001C3.40925 34.001 2.70725 34.001 2.00525 34C1.54125 33.998 1.08025 33.83 0.72525 33.532C0.28225 33.159 0.01425 32.588 0.01125 32.007C-0.00375 22.669 -0.00375 13.332 0.01125 3.994C0.01325 3.484 0.21825 2.979 0.57225 2.612C0.94325 2.227 1.47325 2.003 2.00525 2C14.0092 1.982 26.0133 1.982 38.0173 2C38.6592 2.004 39.2832 2.329 39.6522 2.857C39.8832 3.189 40.0103 3.59 40.0112 4C40.6782 4 41.3442 4 42.0112 4ZM47.0062 30C46.3042 30.002 45.6032 30.259 45.0662 30.717C44.5223 31.182 44.1502 31.848 44.0443 32.552C43.9562 33.139 44.0462 33.752 44.3013 34.287C44.7062 35.138 45.5252 35.778 46.4662 35.951C47.2593 36.097 48.1073 35.911 48.7682 35.431C49.4222 34.957 49.8722 34.209 49.9832 33.416C50.0703 32.789 49.9552 32.139 49.6543 31.58C49.2303 30.795 48.4492 30.214 47.5562 30.05C47.3783 30.017 47.1973 30.001 47.0163 30C47.0132 30 47.0093 30 47.0062 30ZM9.00625 30C8.04625 30.003 7.11125 30.486 6.55425 31.28C6.07325 31.965 5.89525 32.854 6.09025 33.687C6.30625 34.608 6.97925 35.404 7.86125 35.772C8.77025 36.15 9.86425 36.046 10.6903 35.486C11.3942 35.009 11.8812 34.228 11.9872 33.379C12.1003 32.485 11.7913 31.549 11.1483 30.896C10.5933 30.332 9.80925 30.002 9.01625 30C9.01325 30 9.00925 30 9.00625 30ZM49.6772 6H40.0112V32H42.1123C42.1442 31.839 42.1852 31.679 42.2342 31.522C42.6522 30.17 43.6652 29.019 44.9743 28.434C45.6082 28.15 46.2972 28.003 46.9953 28C47.0033 28 47.0112 28 47.0192 28C48.3802 28.003 49.7223 28.584 50.6562 29.579C51.2873 30.251 51.7262 31.098 51.9112 32.001C52.6112 32.001 53.3112 32.001 54.0112 32C54.0112 30 54.0112 28 54.0122 26H51.0093C50.9683 25.999 50.9632 26 50.9193 25.996C50.7192 25.975 50.5303 25.895 50.3792 25.771C50.2863 25.694 50.1942 25.585 50.1322 25.471C50.1082 25.426 50.0892 25.382 50.0732 25.339C50.0622 25.311 50.0493 25.269 50.0423 25.24C50.0303 25.194 50.0212 25.145 50.0163 25.093C50.0122 25.052 50.0122 25.043 50.0112 25.005V20.996C50.0122 20.958 50.0122 20.949 50.0163 20.908C50.0212 20.855 50.0303 20.807 50.0423 20.76C50.0493 20.732 50.0622 20.69 50.0732 20.662C50.1372 20.487 50.2752 20.307 50.4183 20.2C50.5622 20.092 50.7393 20.024 50.9193 20.005C50.9632 20.001 50.9683 20.001 51.0093 20H54.0122C54.0122 17.33 54.0122 14.661 54.0112 11.991C54.0093 10.95 53.8182 9.93 53.4152 8.983C53.1423 8.339 52.7713 7.735 52.2882 7.227C51.7593 6.671 51.0882 6.236 50.3412 6.072C50.1232 6.025 49.8993 6.001 49.6772 6ZM38.0112 32V26H2.00325C2.00525 28 2.00825 30 2.01125 32C2.01125 32.001 2.01225 32 2.01225 32H4.11325C4.20125 31.57 4.34425 31.151 4.54225 30.758C5.15225 29.544 6.27525 28.595 7.59125 28.205C8.04925 28.07 8.52825 28.001 9.00325 28C9.00825 28 9.01425 28 9.01925 28C10.2692 28.003 11.5142 28.493 12.4333 29.356C13.1813 30.059 13.7063 30.995 13.9113 32H38.0112ZM54.0112 24V22H52.0112V24C52.6782 24 53.3442 24 54.0112 24ZM2.01125 22V24H38.0112V22C26.0112 22 14.0112 22 2.01125 22ZM38.0122 4.965C38.0122 4.643 38.0112 4.322 38.0112 4H38.0103C26.0113 4 14.0112 4 2.01225 4H2.01125C2.00225 9.334 1.99925 14.667 2.00025 20H38.0112V5C38.0123 4.989 38.0122 4.977 38.0122 4.965ZM22.0112 18H18.0112C17.9782 17.999 17.9462 17.999 17.9132 17.996C17.6213 17.967 17.3442 17.802 17.1803 17.556C17.0892 17.42 17.0322 17.261 17.0163 17.098C17.0133 17.066 17.0133 17.033 17.0112 17V15H15.0112L14.9132 14.996C14.8812 14.991 14.8482 14.988 14.8162 14.981C14.5592 14.93 14.3252 14.774 14.1802 14.556C14.0892 14.42 14.0322 14.261 14.0162 14.098C14.0132 14.066 14.0132 14.033 14.0112 14V10C14.0132 9.968 14.0132 9.935 14.0162 9.902C14.0412 9.642 14.1742 9.394 14.3772 9.227C14.5282 9.103 14.7182 9.024 14.9132 9.005C14.9462 9.002 14.9782 9.002 15.0112 9H17.0112V7L17.0163 6.902C17.0212 6.87 17.0243 6.837 17.0303 6.805C17.0812 6.548 17.2382 6.314 17.4552 6.169C17.5922 6.078 17.7502 6.021 17.9132 6.005C17.9462 6.002 17.9782 6.002 18.0112 6H22.0112C22.0443 6.002 22.0762 6.004 22.1092 6.005C22.1412 6.01 22.1742 6.013 22.2062 6.02C22.5592 6.09 22.8622 6.362 22.9683 6.71C22.9872 6.773 23.0002 6.837 23.0062 6.902C23.0092 6.935 23.0092 6.968 23.0112 7V9H25.0112L25.1092 9.005C25.1412 9.01 25.1742 9.013 25.2062 9.02C25.4632 9.071 25.6973 9.227 25.8423 9.445C25.9333 9.581 25.9902 9.739 26.0062 9.902C26.0092 9.935 26.0092 9.968 26.0112 10V14C26.0092 14.033 26.0092 14.066 26.0062 14.098C25.9712 14.456 25.7302 14.785 25.3942 14.924C25.3032 14.962 25.2072 14.986 25.1092 14.996C25.0762 14.999 25.0443 14.999 25.0112 15H23.0112V17L23.0062 17.098C23.0012 17.131 22.9982 17.163 22.9922 17.195C22.9222 17.548 22.6502 17.852 22.3013 17.957C22.2393 17.976 22.1742 17.989 22.1092 17.996C22.0762 17.999 22.0443 17.999 22.0112 18ZM51.0112 18H43.0112C42.9782 17.999 42.9463 17.999 42.9132 17.996C42.5552 17.96 42.2262 17.719 42.0872 17.383C42.0503 17.292 42.0252 17.196 42.0163 17.098C42.0132 17.066 42.0132 17.033 42.0112 17V9C42.0132 8.968 42.0132 8.935 42.0163 8.902C42.0513 8.545 42.2922 8.216 42.6283 8.076C42.7192 8.039 42.8153 8.015 42.9132 8.005C42.9463 8.002 42.9782 8.002 43.0112 8H50.9982C51.0042 8 51.0103 8.001 51.0163 8.001C51.1823 8.006 51.3692 8.058 51.5153 8.145C51.5772 8.182 51.6572 8.244 51.7122 8.299C51.8003 8.387 51.8722 8.491 51.9232 8.607C51.9432 8.651 51.9652 8.714 51.9753 8.75C52.0033 8.854 52.0103 8.946 52.0112 8.995C52.0112 9.002 52.0112 9.009 52.0112 9.015V17C52.0093 17.033 52.0093 17.066 52.0062 17.098C51.9712 17.456 51.7303 17.785 51.3942 17.924C51.3032 17.962 51.2072 17.986 51.1092 17.996C51.0762 17.999 51.0443 17.999 51.0112 18ZM19.0112 8V10L19.0062 10.098C19.0012 10.131 18.9982 10.163 18.9922 10.195C18.9222 10.548 18.6502 10.852 18.3013 10.957C18.2393 10.976 18.1742 10.989 18.1092 10.996C18.0763 10.999 18.0443 10.999 18.0112 11H16.0112V13H18.0112C18.0443 13.002 18.0763 13.002 18.1092 13.005C18.4012 13.034 18.6782 13.198 18.8422 13.445C18.9333 13.581 18.9902 13.739 19.0062 13.902C19.0092 13.935 19.0092 13.968 19.0112 14V16H21.0112V14C21.0133 13.968 21.0133 13.935 21.0163 13.902C21.0513 13.544 21.2922 13.216 21.6283 13.076C21.7192 13.039 21.8153 13.015 21.9132 13.005C21.9462 13.002 21.9782 13.002 22.0112 13H24.0112V11H22.0112C21.9782 10.999 21.9462 10.999 21.9132 10.996C21.5562 10.96 21.2262 10.719 21.0872 10.383C21.0502 10.292 21.0252 10.196 21.0163 10.098C21.0133 10.066 21.0133 10.033 21.0112 10V8C20.3442 8 19.6782 8 19.0112 8ZM44.0112 10V16H50.0112V10C48.0112 10 46.0112 10 44.0112 10ZM46.0112 3.999C46.0112 3.664 46.0122 3.329 46.0112 2.994C46.0083 2.592 45.7443 2.204 45.3582 2.062C45.2463 2.021 45.1252 2 45.0083 2C44.6922 2.002 44.3812 2.162 44.1973 2.42C44.0773 2.588 44.0112 2.792 44.0112 3.001V3.999C44.6782 3.999 45.3442 3.999 46.0112 3.999Z" fill="black"/>
</svg>
