<svg width="15" height="21" viewBox="0 0 15 21" fill="none" xmlns="http://www.w3.org/2000/svg">
<path fill-rule="evenodd" clip-rule="evenodd" d="M0.163086 19.4018V3.82843C0.163086 3.65461 0.239542 3.47094 0.362947 3.34753L3.51062 0.199861C3.63488 0.0756043 3.82285 0 3.99708 0H14.0241C14.474 0 14.837 0.363742 14.837 0.814989V19.4024C14.837 19.8523 14.4736 20.2174 14.0228 20.2174H0.977254C0.52734 20.2174 0.163086 19.8502 0.163086 19.4018ZM4.89057 0.978261C4.71124 0.978261 4.56526 1.12391 4.56526 1.30357V3.58846C4.56526 4.03497 4.20059 4.40217 3.75154 4.40217H1.46665C1.28916 4.40217 1.14135 4.54709 1.14135 4.72586V19.2391H13.8587V0.978261H4.89057ZM1.99522 3.42391C1.81563 3.42391 1.7731 3.32085 1.90127 3.19268L3.35577 1.73818C3.48347 1.61048 3.587 1.65104 3.587 1.83214V3.09873C3.587 3.27832 3.44292 3.42391 3.26181 3.42391H1.99522ZM8.08508 15.7479C7.76772 16.0711 7.25574 16.0723 6.93989 15.7525L3.13723 11.9014C2.52346 11.2863 3.44412 10.3641 4.05756 10.9792L6.62069 13.5497C6.74648 13.6759 6.84914 13.6327 6.84914 13.4524V6.36029C6.84914 5.99861 7.14055 5.70654 7.50001 5.70654C7.86198 5.70654 8.15088 5.99924 8.15088 6.36029V13.4524C8.15088 13.6318 8.25316 13.6762 8.37933 13.5497L10.9425 10.9792C11.5562 10.3641 12.4766 11.2863 11.8628 11.9014L8.08508 15.7479Z" fill="black"/>
</svg>
