<?xml version="1.0" encoding="UTF-8"?>
<svg width="30px" height="31px" viewBox="0 0 30 31" version="1.1" xmlns="http://www.w3.org/2000/svg" xmlns:xlink="http://www.w3.org/1999/xlink">
    <!-- Generator: Sketch 53 (72520) - https://sketchapp.com -->
    <title>noun_Email_1002247</title>
    <desc>Created with Sketch.</desc>
    <g id="PMO" stroke="none" stroke-width="1" fill="none" fill-rule="evenodd">
        <g id="Incident-Details" transform="translate(-430.000000, -950.000000)" fill="#000000" fill-rule="nonzero">
            <g id="Email-Alert-Button" transform="translate(390.000000, 935.000000)">
                <g id="noun_Email_1002247" transform="translate(40.000000, 15.000000)">
                    <path d="M2.87608696,30.5673913 L27.123913,30.5673913 C28.7128593,30.5655918 30.000001,29.2769908 30,27.6880435 L30,12.2902174 C29.9997535,12.0499888 29.8935638,11.8220985 29.7097826,11.6673913 L25.6956522,8.27608696 L25.6956522,2.36413043 C25.6956522,1.10348046 24.6736935,0.0815217391 23.4130435,0.0815217391 L6.74673913,0.0815217391 C5.48608916,0.0815217391 4.46413043,1.10348046 4.46413043,2.36413043 L4.46413043,8.15217391 L0.290217391,11.6673913 C0.106436156,11.8220985 0.000246458567,12.0499888 0,12.2902174 L0,27.6880435 C-1.01896258e-06,29.2769908 1.28714066,30.5655918 2.87608696,30.5673913 Z M27.1206522,28.9369565 L2.87608696,28.9369565 C2.18760512,28.9351589 1.63043244,28.3765277 1.63043478,27.6880435 L1.63043478,13.8456522 L10.923913,20.4195652 L4.32717391,25.4673913 C3.96698821,25.7375306 3.89399115,26.2485099 4.16413043,26.6086957 C4.43426971,26.9688814 4.94524908,27.0418784 5.30543478,26.7717391 L12.3195652,21.4043478 L14.6021739,23.0347826 C14.8844832,23.2347426 15.262256,23.2347426 15.5445652,23.0347826 L17.8271739,21.4043478 L24.8445652,26.7619565 C25.2047509,27.0320958 25.7157303,26.9590987 25.9858696,26.598913 C26.2560088,26.2387273 26.1830118,25.727748 25.8228261,25.4576087 L19.2391304,20.4195652 L28.3695652,13.9630435 L28.3695652,27.6913043 C28.3677733,28.3785154 27.8111241,28.9351646 27.123913,28.9369565 L27.1206522,28.9369565 Z M27.9130435,12.2869565 L25.6956522,13.8554348 L25.6956522,10.4086957 L27.9130435,12.2869565 Z M6.74673913,1.71521739 L23.4163043,1.71521739 C23.7764901,1.71521739 24.0684783,2.0072056 24.0684783,2.3673913 L24.0684783,15 L15.0815217,21.3619565 L6.09782609,15 L6.09782609,2.36413043 C6.09960988,2.00648713 6.38909583,1.71700118 6.74673913,1.71521739 Z M4.46413043,13.8554348 L2.15543478,12.225 L4.46413043,10.2684783 L4.46413043,13.8554348 Z M15,17.175 L15.2086957,17.175 C15.6589278,17.175 16.023913,16.8100147 16.023913,16.3597826 C16.023913,15.9095505 15.6589278,15.5445652 15.2086957,15.5445652 L15,15.5445652 C12.1293199,15.5445652 9.80217391,13.2174192 9.80217391,10.3467391 C9.80217391,7.47605905 12.1293199,5.14891304 15,5.14891304 C17.8706801,5.14891304 20.1978261,7.47605905 20.1978261,10.3467391 L20.1978261,11.7391304 C20.1690234,12.2195825 19.7709885,12.5944702 19.2896739,12.5944702 C18.8083593,12.5944702 18.4103244,12.2195825 18.3815217,11.7391304 L18.3815217,10.3467391 C18.3918185,8.76576528 17.3083067,7.38742151 15.7696103,7.02410634 C14.230914,6.66079118 12.6453055,7.4089054 11.9473455,8.82750902 C11.2493855,10.2461126 11.6242684,11.9587983 12.8510375,12.9561057 C14.0778065,13.9534131 15.8309551,13.9707202 17.0771739,12.9978261 C17.6426424,14.0089356 18.8212275,14.5085514 19.9410834,14.2118703 C21.0609394,13.9151892 21.8375698,12.8975821 21.8282609,11.7391304 L21.8282609,10.3467391 C21.8282609,6.57559478 18.7711443,3.51847826 15,3.51847826 C11.2288557,3.51847826 8.17173913,6.57559478 8.17173913,10.3467391 C8.17173913,14.1178835 11.2288557,17.175 15,17.175 Z M15,12.0978261 C14.2917514,12.0978261 13.6532416,11.6711874 13.3822066,11.0168511 C13.1111716,10.3625147 13.2609872,9.60934103 13.7617945,9.10853367 C14.2626019,8.60772631 15.0157756,8.45791074 15.670112,8.72894573 C16.3244483,8.99998072 16.751087,9.63849057 16.751087,10.3467391 C16.751087,11.3138378 15.9670986,12.0978261 15,12.0978261 Z" id="Shape"></path>
                </g>
            </g>
        </g>
    </g>
</svg>