<?xml version="1.0" encoding="UTF-8"?>
<svg width="20px" height="20px" viewBox="0 0 20 20" version="1.1" xmlns="http://www.w3.org/2000/svg" xmlns:xlink="http://www.w3.org/1999/xlink">
    <!-- Generator: Sketch 53 (72520) - https://sketchapp.com -->
    <title>Group 11</title>
    <desc>Created with Sketch.</desc>
    <g id="Ops-Center" stroke="none" stroke-width="1" fill="none" fill-rule="evenodd">
        <g id="Main" transform="translate(-160.000000, -416.000000)" fill-rule="nonzero">
            <g id="Incident-Column" transform="translate(30.000000, 165.000000)">
                <g id="Incident-Card" transform="translate(0.000000, 171.000000)">
                    <g id="Group-11" transform="translate(130.000000, 80.000000)">
                        <rect id="Rectangle" stroke="#F44336" x="0.5" y="0.5" width="19" height="19" rx="9.5"></rect>
                        <path d="M9.62251908,13.1044654 L8.79541985,13.1044654 L8.79541985,10.404847 L5.82709924,10.404847 L5.82709924,13.1044654 L5,13.1044654 L5,6.99148825 L5.82709924,6.99148825 L5.82709924,9.75408367 L8.79541985,9.75408367 L8.79541985,6.99148825 L9.62251908,6.99148825 L9.62251908,13.1044654 Z M15.760687,10.5937783 C15.760687,10.9912358 15.6907132,11.3592983 15.5507634,11.6979768 C15.4108135,12.0366553 15.2148868,12.3235481 14.9629771,12.5586638 L16,13.5369081 L15.4332061,14.0785112 L14.2744275,12.9995035 C14.1176837,13.0638804 13.9546446,13.1121624 13.7853053,13.1443508 C13.6159661,13.1765393 13.4417312,13.1926333 13.2625954,13.1926333 C12.5488514,13.1926333 11.9687681,12.9463253 11.5223282,12.453702 C11.0758884,11.9610787 10.8526718,11.3411103 10.8526718,10.5937783 L10.8526718,9.50637375 C10.8526718,8.76184076 11.0758884,8.14187241 11.5223282,7.64645008 C11.9687681,7.15102776 12.5488514,6.90332031 13.2625954,6.90332031 C14.0015304,6.90332031 14.6026058,7.15032802 15.0658397,7.64435085 C15.5290736,8.13837367 15.760687,8.75904177 15.760687,9.50637375 L15.760687,10.5937783 Z M14.9335878,9.4979768 C14.9335878,8.93817756 14.7824443,8.47914908 14.4801527,8.12087756 C14.1778611,7.76260605 13.7720127,7.58347298 13.2625954,7.58347298 C12.7811681,7.58347298 12.3970116,7.76260605 12.1101145,8.12087756 C11.8232174,8.47914908 11.679771,8.93817756 11.679771,9.4979768 L11.679771,10.5937783 C11.679771,11.1591756 11.8232174,11.621003 12.1101145,11.9792745 C12.3970116,12.337546 12.7811681,12.5166791 13.2625954,12.5166791 C13.7748117,12.5166791 14.1813598,12.3382458 14.4822519,11.9813737 C14.783144,11.6245017 14.9335878,11.1619746 14.9335878,10.5937783 L14.9335878,9.4979768 Z" id="HQ" fill="#F44336"></path>
                    </g>
                </g>
            </g>
        </g>
    </g>
</svg>