<?xml version="1.0" encoding="UTF-8"?>
<svg width="20px" height="20px" viewBox="0 0 20 20" version="1.1" xmlns="http://www.w3.org/2000/svg" xmlns:xlink="http://www.w3.org/1999/xlink">
    <!-- Generator: Sketch 53 (72520) - https://sketchapp.com -->
    <title>Group 11</title>
    <desc>Created with Sketch.</desc>
    <g id="Ops-Center" stroke="none" stroke-width="1" fill="none" fill-rule="evenodd">
        <g id="Main" transform="translate(-160.000000, -416.000000)" fill-rule="nonzero">
            <g id="Incident-Column" transform="translate(30.000000, 165.000000)">
                <g id="Incident-Card" transform="translate(0.000000, 171.000000)">
                    <g id="Group-11" transform="translate(130.000000, 80.000000)">
                        <rect id="Rectangle" stroke="#F44336" x="0.5" y="0.5" width="19" height="19" rx="9.5"></rect>
                        <path d="M9.99036385,11.4242991 L9.99951208,11.4523364 C10.0117098,12.0909689 9.79215428,12.6252315 9.34083895,13.0551402 C8.88952361,13.4850489 8.2933694,13.7 7.55235841,13.7 C6.79914971,13.7 6.18546155,13.4274171 5.71127551,12.882243 C5.23708946,12.3370689 5,11.6454871 5,10.8074766 L5,9.59719626 C5,8.75918584 5.23708946,8.06682516 5.71127551,7.52009346 C6.18546155,6.97336175 6.79914971,6.7 7.55235841,6.7 C8.30556711,6.7 8.90477071,6.90482661 9.34998718,7.31448598 C9.79520366,7.72414535 10.0117098,8.26697481 9.99951208,8.94299065 L9.99036385,8.97102804 L9.12585535,8.97102804 C9.12585535,8.49439014 8.98863315,8.11744687 8.71418464,7.84018692 C8.43973613,7.56292696 8.05246459,7.42429907 7.55235841,7.42429907 C7.0492028,7.42429907 6.64820905,7.6314621 6.34936511,8.04579439 C6.05052117,8.46012668 5.90110145,8.97414023 5.90110145,9.58785047 L5.90110145,10.8074766 C5.90110145,11.4274174 6.05052117,11.9445462 6.34936511,12.3588785 C6.64820905,12.7732108 7.0492028,12.9803738 7.55235841,12.9803738 C8.05246459,12.9803738 8.43973613,12.8425247 8.71418464,12.5668224 C8.98863315,12.2911201 9.12585535,11.9102828 9.12585535,11.4242991 L9.99036385,11.4242991 Z M14.5776398,10.4548077 L11.815735,10.4548077 L11.815735,12.9596154 L15,12.9596154 L15,13.7 L11,13.7 L11,6.7 L14.9544513,6.7 L14.9544513,7.44519231 L11.815735,7.44519231 L11.815735,9.70961538 L14.5776398,9.70961538 L14.5776398,10.4548077 Z" id="CE" fill="#FF2925"></path>
                    </g>
                </g>
            </g>
        </g>
    </g>
</svg>