<?xml version="1.0" encoding="UTF-8"?>
<svg width="15px" height="15px" viewBox="0 0 15 15" version="1.1" xmlns="http://www.w3.org/2000/svg" xmlns:xlink="http://www.w3.org/1999/xlink">
    <!-- Generator: Sketch 53 (72520) - https://sketchapp.com -->
    <title>noun_expand_28152</title>
    <desc>Created with Sketch.</desc>
    <g id="Ops-Center" stroke="none" stroke-width="1" fill="none" fill-rule="evenodd">
        <g id="Main" transform="translate(-215.000000, -216.000000)" fill="#000000">
            <g id="Incident-Column" transform="translate(30.000000, 165.000000)">
                <g id="Incident-Card" transform="translate(0.000000, 41.000000)">
                    <g id="noun_expand_28152" transform="translate(185.000000, 10.000000)">
                        <path d="M14.2893491,15 L0.710484211,15 C0.318159596,15 0,14.6818369 0,14.2895079 L0,0.710492106 C0,0.318163132 0.318159596,0 0.710484211,0 L6.62768605,0 C7.02001067,0 7.33817026,0.318163132 7.33817026,0.710492106 C7.33817026,1.10282108 7.02001067,1.42098421 6.62768605,1.42098421 L1.42096842,1.42098421 L1.42096842,13.5791825 L13.5790316,13.5791825 L13.5790316,8.55340496 C13.5790316,8.16107599 13.8971912,7.84291286 14.2895158,7.84291286 C14.6818404,7.84291286 15,8.16107599 15,8.55340496 L15,14.2895079 C14.9998333,14.6818369 14.6816737,15 14.2893491,15 Z" id="Path"></path>
                        <path d="M15,0.690547025 L15,4.8893774 C15,5.27076536 14.6911559,5.57976248 14.309595,5.57976248 C13.9281961,5.57976248 13.6191901,5.2709273 13.6191901,4.8893774 L13.6191901,2.35764155 L7.74127374,8.23555062 C7.60490945,8.37012956 7.42886671,8.4375 7.25282398,8.4375 C7.07499976,8.4375 6.89895702,8.37012956 6.76437421,8.23555062 C6.4952086,7.96639275 6.4952086,7.52978047 6.76437421,7.26046065 L12.6424525,1.38077015 L10.1108057,1.38077015 C9.7294068,1.38077015 9.42040078,1.07177303 9.42040078,0.690385077 C9.42040078,0.308997121 9.7294068,0 10.1108057,0 L14.309757,0 C14.3563994,0 14.4028799,0.00518234165 14.4495223,0.013765595 C14.4720337,0.0189479367 14.4943832,0.0241302783 14.5151132,0.0310940499 C14.5376246,0.0380578215 14.5581927,0.0448596449 14.5789226,0.0552243282 C14.5962516,0.0621880998 14.6134186,0.0689899232 14.6307475,0.0793546065 C14.6514775,0.0897192898 14.670426,0.100083973 14.6893745,0.113849568 C14.7083229,0.125995681 14.7272714,0.139761276 14.7463819,0.155308301 C14.7637108,0.169073896 14.7808778,0.184620921 14.7982068,0.201949376 C14.8793451,0.283085413 14.9361906,0.381387956 14.969067,0.485034789 C14.976031,0.507545585 14.9812135,0.529894434 14.986396,0.55240523 C14.9948175,0.597426823 15,0.64390595 15,0.690547025 Z" id="Path"></path>
                    </g>
                </g>
            </g>
        </g>
    </g>
</svg>