<svg width="26" height="25" viewBox="0 0 26 25" fill="none" xmlns="http://www.w3.org/2000/svg">
<path fill-rule="evenodd" clip-rule="evenodd" d="M0 1C0 0.447716 0.447715 0 1 0H3C3.55228 0 4 0.447715 4 1V21H25C25.5523 21 26 21.4477 26 22V24C26 24.5523 25.5523 25 25 25H3H1C0.447715 25 0 24.5523 0 24V22V1ZM6 14C6 13.4477 6.44772 13 7 13H10C10.5523 13 11 13.4477 11 14V18C11 18.5523 10.5523 19 10 19H7C6.44772 19 6 18.5523 6 18V14ZM14 8C13.4477 8 13 8.44771 13 9V18C13 18.5523 13.4477 19 14 19H17C17.5523 19 18 18.5523 18 18V9C18 8.44772 17.5523 8 17 8H14ZM20 1C20 0.447715 20.4477 0 21 0H24C24.5523 0 25 0.447715 25 1V18C25 18.5523 24.5523 19 24 19H21C20.4477 19 20 18.5523 20 18V1Z" fill="#333333"/>
</svg>
