<?xml version="1.0" encoding="UTF-8"?>
<svg width="83px" height="64px" viewBox="0 0 83 64" version="1.1" xmlns="http://www.w3.org/2000/svg" xmlns:xlink="http://www.w3.org/1999/xlink">
    <!-- Generator: Sketch 53 (72520) - https://sketchapp.com -->
    <title>Group</title>
    <desc>Created with Sketch.</desc>
    <g id="Ops-Center" stroke="none" stroke-width="1" fill="none" fill-rule="evenodd">
        <g id="Login" transform="translate(-50.000000, -48.000000)">
            <g id="Group" transform="translate(50.000000, 50.000000)">
                <circle id="Oval" stroke="#FFFFFF" stroke-width="4" fill-rule="nonzero" cx="42" cy="30" r="30"></circle>
                <path d="M6,16.5 C6.96810994,15.7393422 10.614029,13.9122816 13.5,13.5 C17,13 16,13 20,13.3 C20.7788061,13.3584105 24.5,13.5 27,16.5 C27,15.5 27,15 27,13.5 C30.8476705,13.5 35.7526982,13.5 40.9280776,13.5 C43.5,20 40.9280776,13.5 43.5,20 C43.6397587,20.3532111 43.6397587,20.3532111 46.2512373,13.5 C50.6067271,13.5 55.3532307,13.5 60.5399964,13.5 C60.5399964,14.5 60.5399964,16.4324888 60.5399964,17.5 C61.5,16 64.6216137,14.2459482 65.5,14 C68,13.3 68.473736,13.5 70.5,13.5 C72.5,13.5 76.2742196,14.3649777 78.3871098,15.4324888 C80.5,16.5 81.5,17.5 82.5,19.5 C81.1895902,21.101612 82.5,19.5 77,26 C86,30.5 80.9293984,41.2847219 79.5,43 C77,46 72.8265078,46 68.5,46 C63.5,46 61,44.5 60.5399964,43.5 C60.5399964,45 60.5399964,44.78 60.5399964,46 C56.7073521,46 52.8672955,46 49.5,46 C49.5,43.5 49.5,44 49.5,39 C47,46 49.5,39 47,46 C44.0480297,46 42.0957966,46 39.5,46 C37.5,39 39.3375622,46 37.5,39 C37.5,44.78 37.5,40 37.5,46 C33.701661,46 29.8793323,46 27,46 C27,44 27,44 27,42.5 C26,45 20.9986049,45.9714684 20,46 C16.5,46.1 17.5,46.1 16,46.1 C10.4813294,46.1 7.4174099,44.2149228 6,43 C-1,37 -1,22 6,16.5 Z" id="Rectangle" fill="#FFFFFF" fill-rule="nonzero"></path>
                <path d="M21.725,23.66 C21.1883307,23.0066634 20.5291706,22.5050017 19.7475,22.155 C18.9658294,21.8049983 18.0616718,21.63 17.035,21.63 C16.0083282,21.63 15.0575044,21.8283314 14.1825,22.225 C13.3074956,22.6216686 12.5491699,23.1758298 11.9075,23.8875 C11.2658301,24.5991702 10.7641685,25.4449951 10.4025,26.425 C10.0408315,27.4050049 9.86,28.466661 9.86,29.61 C9.86,30.7766725 10.0408315,31.8441618 10.4025,32.8125 C10.7641685,33.7808382 11.2599969,34.6208298 11.89,35.3325 C12.5200032,36.0441702 13.2608291,36.5983313 14.1125,36.995 C14.9641709,37.3916686 15.8799951,37.59 16.86,37.59 C17.9800056,37.59 18.9716624,37.356669 19.835,36.89 C20.6983377,36.423331 21.4099972,35.7700042 21.97,34.93 L26.52,38.325 C25.4699948,39.7950073 24.1400081,40.8799965 22.53,41.58 C20.919992,42.2800035 19.2633419,42.63 17.56,42.63 C15.6233237,42.63 13.8383415,42.3266697 12.205,41.72 C10.5716585,41.1133303 9.16000595,40.2441723 7.97,39.1125 C6.77999405,37.9808277 5.85250333,36.6100081 5.1875,35 C4.52249668,33.3899919 4.19,31.5933433 4.19,29.61 C4.19,27.6266567 4.52249668,25.8300081 5.1875,24.22 C5.85250333,22.6099919 6.77999405,21.2391723 7.97,20.1075 C9.16000595,18.9758277 10.5716585,18.1066697 12.205,17.5 C13.8383415,16.8933303 15.6233237,16.59 17.56,16.59 C18.2600035,16.59 18.9891629,16.654166 19.7475,16.7825 C20.5058371,16.910834 21.2524963,17.1149986 21.9875,17.395 C22.7225037,17.6750014 23.42833,18.048331 24.105,18.515 C24.7816701,18.981669 25.3883307,19.55333 25.925,20.23 L21.725,23.66 Z M29.495,17.22 L37.755,17.22 L43.46,33.39 L43.53,33.39 L49.27,17.22 L57.495,17.22 L57.495,42 L52.035,42 L52.035,22.995 L51.965,22.995 L45.455,42 L41.29,42 L35.025,22.995 L34.955,22.995 L34.955,42 L29.495,42 L29.495,17.22 Z M74.785,23.275 C74.3416645,22.7149972 73.7408371,22.3008347 72.9825,22.0325 C72.2241629,21.7641653 71.5066701,21.63 70.83,21.63 C70.4333314,21.63 70.0250021,21.6766662 69.605,21.77 C69.1849979,21.8633338 68.7883352,22.0091657 68.415,22.2075 C68.0416648,22.4058343 67.7383345,22.6683317 67.505,22.995 C67.2716655,23.3216683 67.155,23.718331 67.155,24.185 C67.155,24.9316704 67.4349972,25.5033313 67.995,25.9 C68.5550028,26.2966687 69.2608291,26.6349986 70.1125,26.915 C70.9641709,27.1950014 71.8799951,27.4749986 72.86,27.755 C73.8400049,28.0350014 74.7558291,28.4316641 75.6075,28.945 C76.4591709,29.4583359 77.1649972,30.1466624 77.725,31.01 C78.2850028,31.8733376 78.565,33.0283261 78.565,34.475 C78.565,35.8516736 78.3083359,37.0533282 77.795,38.08 C77.2816641,39.1066718 76.5875044,39.95833 75.7125,40.635 C74.8374956,41.3116701 73.8225058,41.8133317 72.6675,42.14 C71.5124942,42.4666683 70.2933398,42.63 69.01,42.63 C67.399992,42.63 65.9066736,42.3850025 64.53,41.895 C63.1533265,41.4049976 61.870006,40.6116722 60.68,39.515 L64.565,35.245 C65.1250028,35.9916704 65.8308291,36.5691646 66.6825,36.9775 C67.5341709,37.3858354 68.4149955,37.59 69.325,37.59 C69.7683356,37.59 70.2174977,37.5375005 70.6725,37.4325 C71.1275023,37.3274995 71.5358315,37.170001 71.8975,36.96 C72.2591685,36.7499989 72.5508322,36.4816683 72.7725,36.155 C72.9941678,35.8283317 73.105,35.4433356 73.105,35 C73.105,34.2533296 72.8191695,33.6641688 72.2475,33.2325 C71.6758305,32.8008312 70.9583377,32.4333348 70.095,32.13 C69.2316624,31.8266651 68.2983384,31.5233349 67.295,31.22 C66.2916617,30.9166652 65.3583377,30.5083359 64.495,29.995 C63.6316624,29.4816641 62.9141695,28.8050042 62.3425,27.965 C61.7708305,27.1249958 61.485,26.0166735 61.485,24.64 C61.485,23.3099934 61.7474974,22.1433383 62.2725,21.14 C62.7975026,20.1366617 63.4974956,19.2966701 64.3725,18.62 C65.2475044,17.94333 66.256661,17.435835 67.4,17.0975 C68.5433391,16.759165 69.7216606,16.59 70.935,16.59 C72.335007,16.59 73.6883268,16.7883314 74.995,17.185 C76.3016732,17.5816687 77.4799948,18.246662 78.53,19.18 L74.785,23.275 Z" id="CMS" fill="#333333"></path>
            </g>
        </g>
    </g>
</svg>