<?xml version="1.0" encoding="UTF-8"?>
<svg width="260px" height="308px" viewBox="0 0 260 308" version="1.1" xmlns="http://www.w3.org/2000/svg" xmlns:xlink="http://www.w3.org/1999/xlink">
    <!-- Generator: Sketch 53 (72520) - https://sketchapp.com -->
    <title>Group 4</title>
    <desc>Created with Sketch.</desc>
    <g id="Logo" stroke="none" stroke-width="1" fill="none" fill-rule="evenodd">
        <g id="Artboard" transform="translate(-120.000000, -92.000000)">
            <g id="Group-4" transform="translate(120.000000, 92.000000)">
                <g id="Group-3">
                    <g id="Group-2" transform="translate(0.000000, 0.000000)">
                        <path d="M120,172 L120,307.5 C88.3333333,288.5 66.1666667,272.666667 53.5,260 C34.5,241 9,221 5.0293103e-14,188 C5.0293103e-14,169.081442 5.0293103e-14,150.162884 5.0293103e-14,131.244326 L4.99600361e-14,131.244326 C4.98924007e-14,130.692041 0.44771525,130.244326 1,130.244326 C1.07236213,130.244326 1.14451049,130.25218 1.21517753,130.267751 L29.5,136.5 C29.5,136.5 29.6666667,145.833333 30,164.5 C30,183.5 35.5,202 51.5,216.5 C62.1666667,226.166667 75,237.333333 90,250 L90,162.871279 L95.5,173 L112.5,173 C112.5,170.354871 112.5,168.698974 112.5,168.032307 C114.166667,170.010769 116.666667,171.333333 120,172 Z" id="Rectangle" fill="#E7221C"></path>
                        <path d="M5,4.26325641e-14 L120,4.26325641e-14 L120,20 L120,76.5 L90,70 L90,30 L30,30 L30,90 L120,110 L120,125.5 C116.941273,126.740814 114.774606,127.907481 113.5,129 C112.225394,130.092519 110.892061,131.925853 109.5,134.5 C106.93731,130.954741 104.770644,128.621408 103,127.5 C101.229356,126.378592 98.3960231,125.545259 94.5,125 L67.4522466,124.989388 L3.54161145e-14,110 L7.10542736e-15,5 C6.76725048e-15,2.23857625 2.23857625,4.2251651e-14 5,4.17443857e-14 Z" id="Rectangle" fill="#0A216B"></path>
                    </g>
                    <g id="Group" transform="translate(140.000000, 0.000000)">
                        <path d="M30,246 C42,241.666667 54.5,232.666667 67.5,219 C77.7765499,208.196448 90.0314618,194.3299 90,176.5 C89.9948417,173.576728 89.9948417,167.410061 90,158 L80,158 L80,140.936907 L90.5,140.936907 L90.5,130 L99.5,130 L120,130 C120,149.333333 120,167.333333 120,184 C116.528793,202.731622 110.848919,212.973743 103,222 C82,250.666667 54.3333333,275.333333 20,296 L0,307.5 L0,172 C2.66666667,170.709743 4.83333333,169.387179 6.5,168.032307 C8.16666667,166.677436 9.83206969,164.772517 11.4962091,162.317551 L11.4962091,173 L30,173 L30,246 Z" id="Rectangle" fill="#E7221C"></path>
                        <path d="M0,-1.13686838e-12 L115,-1.13775656e-12 C117.761424,-1.13090591e-12 120,2.23857625 120,5 L120,20 L120,90 L90,96 L90,30 L30,30 L30,127.5 L28,125 L11.5,125 C11.5,128.313148 11.5,131.690064 11.5,135.13075 C10.0592888,133 9.41969369,131.5 6.5,129 C4.55353754,127.333333 2.38687088,126.166667 2.13162821e-13,125.5 L0,20 L0,-1.13686838e-12 Z" id="Rectangle" fill="#0A216B"></path>
                    </g>
                </g>
                <path d="M47,129.969722 L71.5686463,129.969722 L71.5686463,136.098443 L53.77385,136.098443 L53.77385,146.097936 L70.5471928,146.097936 L70.5471928,152.226657 L53.77385,152.226657 L53.77385,168.032307 L47,168.032307 L47,129.969722 Z M77.8586499,129.969722 L91.0837855,129.969722 C92.9116589,129.969722 94.6767847,130.139962 96.3792159,130.480448 C98.081647,130.820935 99.595892,131.403337 100.921996,132.227672 C102.2481,133.052007 103.305384,134.16305 104.093878,135.560836 C104.882373,136.958621 105.276614,138.732707 105.276614,140.883147 C105.276614,143.642877 104.515012,145.954565 102.991784,147.818279 C101.468556,149.681993 99.2912687,150.810956 96.4598569,151.205204 L106.566871,168.032307 L98.3952426,168.032307 L89.5784855,151.904093 L84.6324998,151.904093 L84.6324998,168.032307 L77.8586499,168.032307 L77.8586499,129.969722 Z M89.9010498,146.097936 C90.8687475,146.097936 91.8364307,146.053136 92.8041284,145.963534 C93.7718261,145.873932 94.658869,145.658892 95.4652837,145.318405 C96.2716985,144.977919 96.9257806,144.458238 97.4275498,143.759345 C97.929319,143.060452 98.1801998,142.083809 98.1801998,140.829386 C98.1801998,139.718326 97.947239,138.822323 97.4813105,138.14135 C97.015382,137.460378 96.4061,136.949656 95.6534462,136.60917 C94.9007925,136.268684 94.0675097,136.044683 93.153573,135.937161 C92.2396363,135.829639 91.3525934,135.775879 90.4924177,135.775879 L84.6324998,135.775879 L84.6324998,146.097936 L89.9010498,146.097936 Z M109.684993,149.162297 C109.684993,146.115841 110.186754,143.347192 111.190293,140.856266 C112.193831,138.365341 113.582635,136.241814 115.356748,134.485622 C117.13086,132.729429 119.245427,131.376465 121.700512,130.426688 C124.155597,129.47691 126.852566,129.002029 129.7915,129.002029 C132.766274,128.966188 135.490123,129.40523 137.963128,130.319166 C140.436133,131.233103 142.56862,132.568147 144.360653,134.324339 C146.152686,136.080532 147.550451,138.195098 148.553989,140.668104 C149.557527,143.141109 150.059289,145.900798 150.059289,148.947254 C150.059289,151.922028 149.557527,154.627957 148.553989,157.065121 C147.550451,159.502286 146.152686,161.598933 144.360653,163.355125 C142.56862,165.111317 140.436133,166.482202 137.963128,167.46782 C135.490123,168.453438 132.766274,168.964159 129.7915,169 C126.852566,169 124.155597,168.525118 121.700512,167.575341 C119.245427,166.625564 117.13086,165.281559 115.356748,163.543288 C113.582635,161.805016 112.193831,159.717329 111.190293,157.280164 C110.186754,154.843 109.684993,152.137071 109.684993,149.162297 Z M116.781407,148.732211 C116.781407,150.775128 117.095008,152.656734 117.722219,154.377086 C118.349431,156.097437 119.236474,157.584802 120.383375,158.839225 C121.530276,160.093648 122.90116,161.079251 124.496069,161.796064 C126.090978,162.512877 127.874024,162.871279 129.84526,162.871279 C131.816496,162.871279 133.608502,162.512877 135.221332,161.796064 C136.834161,161.079251 138.214006,160.093648 139.360907,158.839225 C140.507808,157.584802 141.394851,156.097437 142.022062,154.377086 C142.649274,152.656734 142.962875,150.775128 142.962875,148.732211 C142.962875,146.832656 142.649274,145.05857 142.022062,143.4099 C141.394851,141.76123 140.507808,140.318665 139.360907,139.082163 C138.214006,137.84566 136.834161,136.877977 135.221332,136.179084 C133.608502,135.480191 131.816496,135.13075 129.84526,135.13075 C127.874024,135.13075 126.090978,135.480191 124.496069,136.179084 C122.90116,136.877977 121.530276,137.84566 120.383375,139.082163 C119.236474,140.318665 118.349431,141.76123 117.722219,143.4099 C117.095008,145.05857 116.781407,146.832656 116.781407,148.732211 Z M156.510575,129.969722 L165.488614,129.969722 L183.928539,158.247857 L184.03606,158.247857 L184.03606,129.969722 L190.80991,129.969722 L190.80991,168.032307 L182.208196,168.032307 L163.391946,138.840239 L163.284424,138.840239 L163.284424,168.032307 L156.510575,168.032307 L156.510575,129.969722 Z M207.099406,136.098443 L195.433332,136.098443 L195.433332,129.969722 L225.539331,129.969722 L225.539331,136.098443 L213.873256,136.098443 L213.873256,168.032307 L207.099406,168.032307 L207.099406,136.098443 Z" id="FRONT" fill="#000000" fill-rule="nonzero"></path>
            </g>
        </g>
    </g>
</svg>