<?xml version="1.0" encoding="UTF-8"?>
<svg width="28px" height="25px" viewBox="0 0 28 25" version="1.1" xmlns="http://www.w3.org/2000/svg" xmlns:xlink="http://www.w3.org/1999/xlink">
    <!-- Generator: Sketch 53 (72520) - https://sketchapp.com -->
    <title>Combined Shape</title>
    <desc>Created with Sketch.</desc>
    <g id="Ops-Center" stroke="none" stroke-width="1" fill="none" fill-rule="evenodd">
        <g id="Main" transform="translate(-270.000000, -124.000000)" fill="#333333">
            <g id="Navigation" transform="translate(270.000000, 124.000000)">
                <path d="M1.27372875,0.362501207 L8.75,2.4902363 L8.75,24.3652363 L0.726271253,22.0816957 C0.296475377,21.9593764 9.42903347e-16,21.5667517 8.8817842e-16,21.1198887 L2.22044605e-16,1.32430814 C1.5440923e-16,0.772023389 0.44771525,0.324308138 1,0.324308138 C1.09257088,0.324308138 1.18469343,0.337161895 1.27372875,0.362501207 Z M18.375,-2.48689958e-14 L18.375,21.875 L9.625,24.3652363 L9.625,2.4902363 L18.375,-2.48689958e-14 Z M19.25,-2.48689958e-14 L27.2737287,2.28354064 C27.7035246,2.40585987 28,2.79848463 28,3.24534757 L28,23.0409282 C28,23.5932129 27.5522847,24.0409282 27,24.0409282 C26.9074291,24.0409282 26.8153066,24.0280744 26.7262713,24.0027351 L19.25,21.875 L19.25,-2.48689958e-14 Z" id="Combined-Shape"></path>
            </g>
        </g>
    </g>
</svg>