<svg width="30" height="30" viewBox="0 0 30 30" fill="none" xmlns="http://www.w3.org/2000/svg">
<mask id="path-1-inside-1" fill="white">
<path fill-rule="evenodd" clip-rule="evenodd" d="M12 0C10.8954 0 10 0.89543 10 2V10H2C0.895431 10 0 10.8954 0 12V18C0 19.1046 0.89543 20 2 20H10V28C10 29.1046 10.8954 30 12 30H18C19.1046 30 20 29.1046 20 28V20H28C29.1046 20 30 19.1046 30 18V12C30 10.8954 29.1046 10 28 10H20V2C20 0.895431 19.1046 0 18 0H12Z"/>
</mask>
<path fill-rule="evenodd" clip-rule="evenodd" d="M12 0C10.8954 0 10 0.89543 10 2V10H2C0.895431 10 0 10.8954 0 12V18C0 19.1046 0.89543 20 2 20H10V28C10 29.1046 10.8954 30 12 30H18C19.1046 30 20 29.1046 20 28V20H28C29.1046 20 30 19.1046 30 18V12C30 10.8954 29.1046 10 28 10H20V2C20 0.895431 19.1046 0 18 0H12Z" fill="white"/>
<path d="M10 10V11H11V10H10ZM10 20H11V19H10V20ZM20 20V19H19V20H20ZM20 10H19V11H20V10ZM11 2C11 1.44772 11.4477 1 12 1V-1C10.3431 -1 9 0.343146 9 2H11ZM11 10V2H9V10H11ZM2 11H10V9H2V11ZM1 12C1 11.4477 1.44772 11 2 11V9C0.343146 9 -1 10.3431 -1 12H1ZM1 18V12H-1V18H1ZM2 19C1.44771 19 1 18.5523 1 18H-1C-1 19.6569 0.343146 21 2 21V19ZM10 19H2V21H10V19ZM11 28V20H9V28H11ZM12 29C11.4477 29 11 28.5523 11 28H9C9 29.6569 10.3431 31 12 31V29ZM18 29H12V31H18V29ZM19 28C19 28.5523 18.5523 29 18 29V31C19.6569 31 21 29.6569 21 28H19ZM19 20V28H21V20H19ZM28 19H20V21H28V19ZM29 18C29 18.5523 28.5523 19 28 19V21C29.6569 21 31 19.6569 31 18H29ZM29 12V18H31V12H29ZM28 11C28.5523 11 29 11.4477 29 12H31C31 10.3431 29.6569 9 28 9V11ZM20 11H28V9H20V11ZM19 2V10H21V2H19ZM18 1C18.5523 1 19 1.44772 19 2H21C21 0.343146 19.6569 -1 18 -1V1ZM12 1H18V-1H12V1Z" fill="#F44336" mask="url(#path-1-inside-1)"/>
<rect x="11" y="11" width="8" height="8" fill="#F44336"/>
</svg>
