<svg width="30" height="30" viewBox="0 0 30 30" fill="none" xmlns="http://www.w3.org/2000/svg">
<path d="M0.500003 9.20545C0.500003 8.65165 0.805146 8.1429 1.29372 7.88213L14.2937 0.94372C14.7351 0.70814 15.2649 0.70814 15.7063 0.94372L28.7063 7.88213C29.1949 8.1429 29.5 8.65165 29.5 9.20545V28C29.5 28.8284 28.8284 29.5 28 29.5H2C1.17158 29.5 0.500003 28.8284 0.500003 28V9.20545Z" fill="#F44336"/>
<path d="M0.500003 9.20545C0.500003 8.65165 0.805146 8.1429 1.29372 7.88213L14.2937 0.94372C14.7351 0.70814 15.2649 0.70814 15.7063 0.94372L28.7063 7.88213C29.1949 8.1429 29.5 8.65165 29.5 9.20545V28C29.5 28.8284 28.8284 29.5 28 29.5H2C1.17158 29.5 0.500003 28.8284 0.500003 28V9.20545Z" stroke="white"/>
<path d="M0.500003 9.20545C0.500003 8.65165 0.805146 8.1429 1.29372 7.88213L14.2937 0.94372C14.7351 0.70814 15.2649 0.70814 15.7063 0.94372L28.7063 7.88213C29.1949 8.1429 29.5 8.65165 29.5 9.20545V28C29.5 28.8284 28.8284 29.5 28 29.5H2C1.17158 29.5 0.500003 28.8284 0.500003 28V9.20545Z" stroke="#333333" stroke-opacity="0.249972"/>
<path fill-rule="evenodd" clip-rule="evenodd" d="M13.6529 18.1937H8.97987V22.8H7.20001V12H14.4V13.4464H8.97987V16.7473H13.6529V18.1937ZM22.1361 19.9522C22.1361 19.5148 21.9636 19.1567 21.6184 18.878C21.2732 18.5992 20.6635 18.3493 19.789 18.1282C18.5413 17.8206 17.5813 17.4132 16.9089 16.9061C16.2364 16.3991 15.9002 15.7346 15.9002 14.9127C15.9002 14.0668 16.2722 13.3698 17.0163 12.8219C17.7603 12.274 18.7203 12 19.8964 12C21.1237 12 22.1093 12.31 22.8533 12.93C23.5973 13.5501 23.9565 14.2951 23.931 15.165L23.9156 15.2083H22.1285C22.1285 14.67 21.9342 14.2338 21.5455 13.8997C21.1569 13.5657 20.6021 13.3987 19.8811 13.3987C19.201 13.3987 18.6781 13.538 18.3125 13.8168C17.9469 14.0956 17.7641 14.4561 17.7641 14.8983C17.7641 15.2972 17.9622 15.6288 18.3585 15.8932C18.7548 16.1575 19.4106 16.4075 20.326 16.643C21.5276 16.9458 22.4404 17.3639 23.0642 17.8975C23.6881 18.431 24 19.1111 24 19.9378C24 20.8126 23.628 21.5083 22.884 22.025C22.14 22.5417 21.162 22.8 19.9501 22.8C18.7842 22.8 17.7616 22.5104 16.882 21.9312C16.0025 21.3521 15.5755 20.5578 15.6011 19.5485L15.6164 19.5052H17.4113C17.4113 20.1445 17.6465 20.6215 18.1169 20.9363C18.5874 21.2511 19.1984 21.4085 19.9501 21.4085C20.6404 21.4085 21.1774 21.2776 21.5609 21.0156C21.9444 20.7537 22.1361 20.3992 22.1361 19.9522Z" fill="white"/>
</svg>
