<svg width="22" height="30" viewBox="0 0 22 30" fill="none" xmlns="http://www.w3.org/2000/svg">
<path d="M10.7798 29.1073C10.7572 29.1364 10.7354 29.1645 10.7143 29.1915C10.6932 29.1645 10.6714 29.1364 10.6488 29.1073C10.3575 28.7324 9.94094 28.1896 9.44087 27.5197C8.44037 26.1792 7.10732 24.3318 5.77517 22.3018C4.44188 20.2701 3.11567 18.0647 2.12458 16.0071C1.12477 13.9313 0.5 12.0733 0.5 10.7143C0.5 5.07309 5.07309 0.5 10.7143 0.5C16.3555 0.5 20.9286 5.07309 20.9286 10.7143C20.9286 12.0733 20.3038 13.9313 19.304 16.0071C18.3129 18.0647 16.9867 20.2701 15.6534 22.3018C14.3213 24.3318 12.9882 26.1792 11.9877 27.5197C11.4876 28.1896 11.0711 28.7324 10.7798 29.1073Z" fill="#F44336"/>
<path d="M10.7798 29.1073C10.7572 29.1364 10.7354 29.1645 10.7143 29.1915C10.6932 29.1645 10.6714 29.1364 10.6488 29.1073C10.3575 28.7324 9.94094 28.1896 9.44087 27.5197C8.44037 26.1792 7.10732 24.3318 5.77517 22.3018C4.44188 20.2701 3.11567 18.0647 2.12458 16.0071C1.12477 13.9313 0.5 12.0733 0.5 10.7143C0.5 5.07309 5.07309 0.5 10.7143 0.5C16.3555 0.5 20.9286 5.07309 20.9286 10.7143C20.9286 12.0733 20.3038 13.9313 19.304 16.0071C18.3129 18.0647 16.9867 20.2701 15.6534 22.3018C14.3213 24.3318 12.9882 26.1792 11.9877 27.5197C11.4876 28.1896 11.0711 28.7324 10.7798 29.1073Z" stroke="white"/>
<path d="M10.7798 29.1073C10.7572 29.1364 10.7354 29.1645 10.7143 29.1915C10.6932 29.1645 10.6714 29.1364 10.6488 29.1073C10.3575 28.7324 9.94094 28.1896 9.44087 27.5197C8.44037 26.1792 7.10732 24.3318 5.77517 22.3018C4.44188 20.2701 3.11567 18.0647 2.12458 16.0071C1.12477 13.9313 0.5 12.0733 0.5 10.7143C0.5 5.07309 5.07309 0.5 10.7143 0.5C16.3555 0.5 20.9286 5.07309 20.9286 10.7143C20.9286 12.0733 20.3038 13.9313 19.304 16.0071C18.3129 18.0647 16.9867 20.2701 15.6534 22.3018C14.3213 24.3318 12.9882 26.1792 11.9877 27.5197C11.4876 28.1896 11.0711 28.7324 10.7798 29.1073Z" stroke="#333333" stroke-opacity="0.25"/>
</svg>
