<?xml version="1.0" encoding="UTF-8"?>
<svg width="30px" height="30px" viewBox="0 0 30 30" version="1.1" xmlns="http://www.w3.org/2000/svg" xmlns:xlink="http://www.w3.org/1999/xlink">
    <!-- Generator: Sketch 53 (72520) - https://sketchapp.com -->
    <title>Reports Icon</title>
    <desc>Created with Sketch.</desc>
    <g id="PMO" stroke="none" stroke-width="1" fill="none" fill-rule="evenodd">
        <g id="Main" transform="translate(-200.000000, -269.000000)" fill="#333333" fill-rule="nonzero">
            <g id="Group-4" transform="translate(200.000000, 209.000000)">
                <g id="Reports-Icon" transform="translate(0.000000, 60.000000)">
                    <g id="Group">
                        <path d="M27.84375,13.875 C29.0625,12.515625 29.8125,10.734375 29.953125,8.8125 L22.78125,8.8125 L27.84375,13.875 Z" id="Path"></path>
                        <path d="M22.125,0.046875 L22.125,7.875 L29.953125,7.875 C29.71875,3.65625 26.34375,0.28125 22.125,0.046875 Z" id="Path"></path>
                        <path d="M21.1875,0.046875 C16.828125,0.28125 13.359375,3.890625 13.359375,8.34375 C13.359375,12.9375 17.109375,16.640625 21.65625,16.640625 C23.765625,16.640625 25.734375,15.84375 27.1875,14.53125 L21.1875,8.53125 L21.1875,0.046875 Z" id="Path"></path>
                        <path d="M12.421875,8.34375 C12.421875,5.109375 14.109375,2.25 16.640625,0.609375 L2.4375,0.609375 C1.125,0.609375 0.046875,1.6875 0.046875,3 L0.046875,27.515625 C0.046875,28.828125 1.125,29.90625 2.4375,29.90625 L22.3125,29.90625 C23.625,29.90625 24.703125,28.828125 24.703125,27.515625 L24.703125,17.0625 C23.71875,17.390625 22.6875,17.578125 21.65625,17.578125 C16.546875,17.578125 12.421875,13.453125 12.421875,8.34375 Z M6.515625,26.25 L4.171875,26.25 L4.171875,12.984375 L6.515625,12.984375 L6.515625,26.25 Z M11.203125,26.25 L8.859375,26.25 L8.859375,15.796875 L11.203125,15.796875 L11.203125,26.25 Z M15.890625,26.25 L13.546875,26.25 L13.546875,18.65625 L15.890625,18.65625 L15.890625,26.25 Z M20.578125,26.25 L18.234375,26.25 L18.234375,21.5625 L20.578125,21.5625 L20.578125,26.25 Z" id="Shape"></path>
                    </g>
                </g>
            </g>
        </g>
    </g>
</svg>