<?xml version="1.0" encoding="UTF-8"?>
<svg width="30px" height="36px" viewBox="0 0 30 36" version="1.1" xmlns="http://www.w3.org/2000/svg" xmlns:xlink="http://www.w3.org/1999/xlink">
    <!-- Generator: Sketch 53 (72520) - https://sketchapp.com -->
    <title>noun_SMS_2110767</title>
    <desc>Created with Sketch.</desc>
    <g id="PMO" stroke="none" stroke-width="1" fill="none" fill-rule="evenodd">
        <g id="Incident-Details" transform="translate(-308.000000, -945.000000)" fill="#000000" fill-rule="nonzero">
            <g id="Warning-SMS-Button" transform="translate(270.000000, 935.000000)">
                <g id="noun_SMS_2110767" transform="translate(38.000000, 10.000000)">
                    <g id="Group">
                        <path d="M26.25,0 L9.75,0 C7.96774268,-0.000363756294 6.43145143,1.25375155 6.075,3 L3,3 C1.34314575,3 2.02906125e-16,4.34314575 0,6 L0,16.5 C2.02906125e-16,18.1568542 1.34314575,19.5 3,19.5 L6,19.5 L6,32.25 C6,33.2445618 6.39508815,34.198389 7.09834957,34.9016504 C7.80161099,35.6049118 8.75543816,36 9.75,36 L26.25,36 C28.3210678,36 30,34.3210678 30,32.25 L30,3.75 C30,1.67893219 28.3210678,1.26816317e-16 26.25,0 Z M9.75,1.5 L26.25,1.5 C27.4926407,1.5 28.5,2.50735931 28.5,3.75 L28.5,6 L22.5,6 C22.5,4.34314575 21.1568542,3 19.5,3 L7.635,3 C7.95206123,2.10320348 8.79880881,1.50267327 9.75,1.5 Z M20.91,5.5125 C20.9668307,5.66888358 20.997246,5.83363303 21,6 L21,16.5 C20.9990502,16.6292292 20.9814041,16.7577939 20.9475,16.8825 L14.505,10.44 L20.91,5.5125 Z M19.5,4.5 C19.5798716,4.49358973 19.6601284,4.49358973 19.74,4.5 L11.25,11.055 L2.76,4.5 C2.83987159,4.49358973 2.92012841,4.49358973 3,4.5 L19.5,4.5 Z M1.5525,16.8825 C1.5185959,16.7577939 1.50094976,16.6292292 1.5,16.5 L1.5,6 C1.50275402,5.83363303 1.53316931,5.66888358 1.59,5.5125 L7.995,10.44 L1.5525,16.8825 Z M2.61,17.94 L9.1875,11.3625 L10.785,12.5925 C11.0546744,12.8000986 11.4303256,12.8000986 11.7,12.5925 L13.2975,11.3625 L19.875,17.94 C19.7530469,17.9758069 19.6270372,17.9959684 19.5,18 L15,18 C14.5857864,18 14.25,18.3357864 14.25,18.75 L14.25,19.9425 L12.5325,18.225 C12.3921964,18.0818583 12.2004344,18.0008321 12,18 L3,18 C2.87077077,17.9990502 2.74220608,17.9814041 2.6175,17.9475 L2.61,17.94 Z M11.6925,19.5 L14.475,22.2825 C14.6902543,22.4934965 15.0109092,22.5551287 15.289046,22.4389657 C15.5671828,22.3228027 15.7487538,22.0514173 15.75,21.75 L15.75,19.5 L19.5,19.5 C21.1568542,19.5 22.5,18.1568542 22.5,16.5 L22.5,7.5 L28.5,7.5 L28.5,28.5 L7.5,28.5 L7.5,19.5 L11.6925,19.5 Z M26.25,34.5 L9.75,34.5 C8.50735931,34.5 7.5,33.4926407 7.5,32.25 L7.5,30 L28.5,30 L28.5,32.25 C28.5,33.4926407 27.4926407,34.5 26.25,34.5 Z" id="Shape"></path>
                        <path d="M20.25,31.5 L15.75,31.5 C15.3357864,31.5 15,31.8357864 15,32.25 C15,32.6642136 15.3357864,33 15.75,33 L20.25,33 C20.6642136,33 21,32.6642136 21,32.25 C21,31.8357864 20.6642136,31.5 20.25,31.5 Z" id="Path"></path>
                    </g>
                </g>
            </g>
        </g>
    </g>
</svg>