<?xml version="1.0" encoding="UTF-8"?>
<svg width="30px" height="34px" viewBox="0 0 30 34" version="1.1" xmlns="http://www.w3.org/2000/svg" xmlns:xlink="http://www.w3.org/1999/xlink">
    <!-- Generator: Sketch 53 (72520) - https://sketchapp.com -->
    <title>noun_Social Media_163062</title>
    <desc>Created with Sketch.</desc>
    <g id="PMO" stroke="none" stroke-width="1" fill="none" fill-rule="evenodd">
        <g id="Incident-Details" transform="translate(-550.000000, -947.000000)" fill="#000000" fill-rule="nonzero">
            <g id="Social-Media-Button" transform="translate(510.000000, 935.000000)">
                <g id="noun_Social-Media_163062" transform="translate(40.000000, 12.000000)">
                    <path d="M23.7977528,21.8089888 C22.011236,21.8089888 20.4269663,22.5842697 19.3483146,23.8314607 L11.4606742,18.9438202 C11.7303371,18.2359551 11.8988764,17.494382 11.8988764,16.6853933 C11.8988764,15.9101124 11.7640449,15.1685393 11.494382,14.494382 L19.2808989,9.80898876 C20.3595506,11.0898876 21.9775281,11.8988764 23.7977528,11.8988764 C27.0674157,11.8988764 29.7303371,9.23595506 29.7303371,5.96629213 C29.7303371,2.69662921 27.0674157,0 23.7977528,0 C20.5280899,0 17.8314607,2.66292135 17.8314607,5.93258427 C17.8314607,6.70786517 17.9662921,7.4494382 18.2359551,8.12359551 L10.4494382,12.8089888 C9.37078652,11.5280899 7.75280899,10.7191011 5.93258427,10.7191011 C2.66292135,10.752809 0,13.4157303 0,16.6853933 C0,19.9550562 2.66292135,22.6179775 5.93258427,22.6179775 C7.71910112,22.6179775 9.30337079,21.8426966 10.3820225,20.5955056 L18.2696629,25.4831461 C18,26.1910112 17.8314607,26.9325843 17.8314607,27.741573 C17.8314607,31.011236 20.494382,33.6741573 23.7640449,33.6741573 C27.0337079,33.6741573 29.6966292,31.011236 29.6966292,27.741573 C29.6966292,24.4719101 27.0674157,21.8089888 23.7977528,21.8089888 Z M23.7977528,1.98876404 C25.988764,1.98876404 27.7752809,3.7752809 27.7752809,5.96629213 C27.7752809,8.15730337 25.988764,9.94382022 23.7977528,9.94382022 C22.7191011,9.94382022 21.741573,9.50561798 21.0337079,8.79775281 L24.3033708,6.80898876 C24.7752809,6.53932584 24.9101124,5.93258427 24.6404494,5.46067416 C24.3707865,4.98876404 23.7640449,4.85393258 23.2921348,5.12359551 L19.988764,7.07865169 C19.8876404,6.70786517 19.8202247,6.33707865 19.8202247,5.96629213 C19.8202247,3.7752809 21.6067416,1.98876404 23.7977528,1.98876404 Z M5.93258427,20.6629213 C3.74157303,20.6629213 1.95505618,18.8764045 1.95505618,16.6853933 C1.95505618,14.494382 3.74157303,12.7078652 5.93258427,12.7078652 C7.01123596,12.7078652 7.98876404,13.1460674 8.69662921,13.8539326 C9.16853933,14.3258427 9.50561798,14.8988764 9.70786517,15.5730337 C9.80898876,15.9438202 9.87640449,16.3146067 9.87640449,16.6853933 C9.87640449,17.0898876 9.80898876,17.494382 9.6741573,17.8651685 C9.47191011,18.505618 9.1011236,19.1123596 8.62921348,19.5505618 C7.95505618,20.2247191 7.01123596,20.6629213 5.93258427,20.6629213 Z M23.7977528,31.7191011 C21.6067416,31.7191011 19.8202247,29.9325843 19.8202247,27.741573 C19.8202247,27.3370787 19.8876404,26.9325843 20.0224719,26.5617978 L23.258427,28.5842697 C23.4269663,28.6853933 23.5955056,28.7191011 23.7640449,28.7191011 C24.1011236,28.7191011 24.4044944,28.5505618 24.6067416,28.247191 C24.9101124,27.7752809 24.741573,27.1685393 24.3033708,26.8988764 L21.0337079,24.8764045 C21.741573,24.2022472 22.7191011,23.7640449 23.7640449,23.7640449 C25.9550562,23.7640449 27.741573,25.5505618 27.741573,27.741573 C27.741573,29.9325843 25.988764,31.7191011 23.7977528,31.7191011 Z" id="Shape"></path>
                </g>
            </g>
        </g>
    </g>
</svg>