<svg width="15" height="21" viewBox="0 0 15 21" fill="none" xmlns="http://www.w3.org/2000/svg">
<path fill-rule="evenodd" clip-rule="evenodd" d="M0.163086 19.4018V3.82843C0.163086 3.65461 0.239542 3.47094 0.362947 3.34753L3.51062 0.199861C3.63488 0.0756043 3.82285 0 3.99708 0H14.0241C14.474 0 14.837 0.363742 14.837 0.814989V19.4024C14.837 19.8523 14.4736 20.2174 14.0228 20.2174H0.977254C0.52734 20.2174 0.163086 19.8502 0.163086 19.4018ZM4.89057 0.978261C4.71124 0.978261 4.56526 1.12391 4.56526 1.30357V3.58846C4.56526 4.03497 4.20059 4.40217 3.75154 4.40217H1.46665C1.28916 4.40217 1.14135 4.54709 1.14135 4.72586V19.2391H13.8587V0.978261H4.89057ZM1.99522 3.42391C1.81563 3.42391 1.7731 3.32085 1.90127 3.19268L3.35577 1.73818C3.48347 1.61048 3.587 1.65104 3.587 1.83214V3.09873C3.587 3.27832 3.44292 3.42391 3.26181 3.42391H1.99522ZM6.91499 5.94994C7.23235 5.62679 7.74433 5.62551 8.06018 5.94538L11.8628 9.79648C12.4766 10.4115 11.556 11.3337 10.9425 10.7187L8.37938 8.14813C8.2536 8.02199 8.15093 8.06518 8.15093 8.24547V15.3376C8.15093 15.6992 7.85953 15.9913 7.50006 15.9913C7.13809 15.9913 6.84919 15.6986 6.84919 15.3376V8.24547C6.84919 8.06603 6.74691 8.0216 6.62075 8.14813L4.05761 10.7187C3.44384 11.3337 2.52351 10.4115 3.13728 9.79648L6.91499 5.94994Z" fill="black"/>
</svg>
