<?xml version="1.0" encoding="UTF-8"?>
<svg width="35px" height="28px" viewBox="0 0 35 28" version="1.1" xmlns="http://www.w3.org/2000/svg" xmlns:xlink="http://www.w3.org/1999/xlink">
    <!-- Generator: Sketch 53 (72520) - https://sketchapp.com -->
    <title>noun_weather_1977413</title>
    <desc>Created with Sketch.</desc>
    <g id="Ops-Center" stroke="none" stroke-width="1" fill="none" fill-rule="evenodd">
        <g id="Main" transform="translate(-205.000000, -120.000000)" fill="#000000">
            <g id="Group-7" transform="translate(30.000000, 120.000000)">
                <g id="Weather-and-Temp" transform="translate(90.000000, 0.000000)">
                    <g id="noun_weather_1977413" transform="translate(85.000000, 0.000000)">
                        <path d="M25.6490072,2.36142477 L25.6490072,0.732905104 C25.6490072,0.330225656 25.32252,0.0037384375 24.9198405,0.0037384375 C24.5171611,0.0037384375 24.1906739,0.330225656 24.1906739,0.732905104 L24.1906739,2.36142477 C24.1906739,2.76410422 24.5171611,3.09059144 24.9198405,3.09059144 C25.32252,3.09059144 25.6490072,2.76410422 25.6490072,2.36142477 Z" id="Path"></path>
                        <path d="M34.2708333,9.35508729 L32.6426696,9.35508729 C32.2399902,9.35508729 31.913503,9.68157451 31.913503,10.084254 C31.913503,10.4869334 32.2399902,10.8134206 32.6426696,10.8134206 L34.2708333,10.8134206 C34.6735128,10.8134206 35,10.4869334 35,10.084254 C35,9.68157451 34.6735128,9.35508729 34.2708333,9.35508729 Z" id="Path"></path>
                        <path d="M21.05896,4.12523905 C21.1825053,4.12523905 21.3078308,4.09390764 21.4228312,4.0276845 C21.7713928,3.82616675 21.8910217,3.38040668 21.68986,3.03148905 L20.8759562,1.62122093 C20.6740824,1.27265935 20.2286784,1.15196229 19.8797608,1.35419215 C19.5311992,1.5557099 19.4115703,2.00146997 19.612732,2.35038759 L20.4266358,3.76065572 C20.5619304,3.99457297 20.8068848,4.12523905 21.05896,4.12523905 Z" id="Path"></path>
                        <path d="M31.6087341,6.95182797 C31.7322795,6.95182797 31.857605,6.92049655 31.9726054,6.85427342 L33.3828735,6.04036964 C33.7314351,5.83885189 33.851064,5.39309181 33.6499023,5.04417419 C33.4483845,4.69561261 33.0033365,4.57491555 32.6537068,4.77714541 L31.2434387,5.59104919 C30.8948771,5.79256694 30.7752482,6.23832701 30.9764099,6.58724464 C31.1117045,6.82116189 31.356659,6.95182797 31.6087341,6.95182797 Z" id="Path"></path>
                        <path d="M28.780365,4.12523905 C29.0324401,4.12523905 29.2773946,3.99457297 29.4126892,3.76065572 L30.226949,2.35038759 C30.4281107,2.00182602 30.3088379,1.55570982 29.9599202,1.35419215 C29.6095784,1.15196229 29.1648865,1.27265935 28.9637248,1.62122093 L28.1494649,3.03148905 C27.9483033,3.38005062 28.0675761,3.82616682 28.4164937,4.0276845 C28.5314942,4.09390771 28.6568197,4.12523905 28.780365,4.12523905 Z" id="Path"></path>
                        <path d="M31.2434387,14.5774587 L32.6537068,15.3913625 C32.7687072,15.4575856 32.8940327,15.4889171 33.0175781,15.4889171 C33.2696532,15.4889171 33.5149637,15.358251 33.6499023,15.1243337 C33.851064,14.7754161 33.7314351,14.329656 33.3828735,14.1281383 L31.9726054,13.3142345 C31.6219076,13.1123607 31.1775716,13.2323457 30.9764099,13.5812633 C30.7752482,13.9301809 30.8948771,14.375941 31.2434387,14.5774587 Z" id="Path"></path>
                        <path d="M17.8670756,6.85427349 C17.982076,6.92049662 18.1074015,6.95182804 18.2309469,6.95182804 C18.483022,6.95182804 18.7283325,6.82116196 18.8632711,6.58724471 C19.0644328,6.23832708 18.9448039,5.79256694 18.5962423,5.59104926 L17.1859742,4.77714548 C16.8363444,4.57491562 16.3905844,4.69561269 16.1897787,5.04417426 C15.988617,5.39309189 16.1082459,5.83885203 16.4568075,6.04036971 L17.8670756,6.85427349 Z" id="Path"></path>
                        <path d="M28.7721761,15.3724925 C28.69723,15.1769384 28.6123594,14.9864579 28.520902,14.7997157 C29.9787013,13.6828231 30.8628337,11.9356537 30.8628337,10.084254 C30.8628337,6.80692039 28.1968181,4.14090476 24.9198405,4.14090476 C21.8266233,4.14090476 19.2807261,6.51657103 19.0041288,9.53880309 C17.5695165,8.14348857 15.5961291,7.31712341 13.4849549,7.31712341 C9.22353111,7.31712341 5.75642907,10.6111908 5.75642907,14.6604157 C5.75642907,14.9053701 5.77031459,15.1531729 5.79772951,15.4023997 C2.54353845,15.7299551 0,18.3557383 0,21.5362295 C0,24.9374644 2.90954592,27.704595 6.48559574,27.704595 L28.5147603,27.704595 C32.0908101,27.7045949 35,24.9374644 35,21.5362295 C35,18.2168833 32.2293091,15.5017344 28.7721761,15.3724925 Z M24.9198405,5.59923809 C27.3925273,5.59923809 29.4045003,7.61121112 29.4045003,10.084254 C29.4045003,11.4325714 28.7835694,12.7107493 27.7492778,13.5563406 C27.7042389,13.4978168 27.6509667,13.4466808 27.6042812,13.3896256 C27.5038784,13.2677269 27.4015618,13.1477865 27.2935932,13.0323856 C27.2044501,12.9366112 27.1131707,12.8438632 27.0192211,12.7529399 C26.9335049,12.670339 26.8444507,12.5916101 26.7548626,12.51297 C26.3660687,12.1708171 25.9439852,11.8692971 25.4927509,11.6102791 C25.4041419,11.5593656 25.3156663,11.5086746 25.2249656,11.4610991 C25.0915402,11.391271 24.9569577,11.3248254 24.8194379,11.2625632 C24.7118697,11.2136969 24.6019874,11.1699042 24.4919715,11.1257109 C24.3629966,11.0740853 24.2358464,11.0194779 24.1039786,10.9745281 C23.8795854,10.8976683 23.6506083,10.8316232 23.4184712,10.7746126 C23.3076543,10.7475536 23.1949681,10.7281051 23.082727,10.7057191 C22.9260256,10.6742542 22.7687456,10.6460382 22.6094184,10.6239193 C22.4954861,10.6082091 22.3815538,10.5945906 22.2665535,10.583776 C22.0919611,10.5672202 21.9159892,10.5584972 21.7391271,10.5535127 C21.664181,10.551421 21.5906591,10.5406954 21.5154015,10.5406954 C21.4958639,10.5406954 21.4747241,10.5449679 21.455142,10.5451458 C21.1323486,10.5475936 20.806618,10.57443 20.4796412,10.6171546 C20.4758583,10.6176887 20.4724314,10.6174216 20.4686485,10.6179557 C20.4462181,10.4385123 20.4348249,10.2601371 20.4348249,10.0842541 C20.4348246,7.61121112 22.4467977,5.59923809 24.9198405,5.59923809 Z M28.5147603,26.2462616 L6.48559574,26.2462616 C3.7134806,26.2462616 1.45833333,24.1331736 1.45833333,21.5362295 C1.45833333,18.9407094 3.71027628,16.8290456 6.53294884,16.8290456 C6.54612226,16.8290456 6.62623092,16.8336742 6.63584396,16.8340301 C6.86121625,16.841863 7.07946779,16.7421722 7.22295131,16.5662892 C7.36643476,16.3907623 7.42019658,16.1582692 7.36785897,15.9375254 C7.26638799,15.507431 7.21476248,15.0776927 7.21476248,14.6604157 C7.21476248,11.4154816 10.0274659,8.77545674 13.4849549,8.77545674 C15.7967124,8.77545674 17.9144288,9.96462505 19.0110271,11.8786876 C19.1748048,12.1645864 19.509481,12.3055776 19.8284914,12.2215525 C19.8976518,12.2033946 19.9666343,12.1936035 20.0357502,12.1777598 C20.0433161,12.1762466 20.0505703,12.1787834 20.0581361,12.1770477 C20.2969489,12.1227963 20.5228998,12.0849673 20.7437326,12.0556386 C20.798607,12.0491854 20.8535259,12.0423317 20.9082669,12.0372581 C21.0432945,12.022883 21.1736936,12.0173199 21.3038256,12.0123354 C21.4175353,12.0086415 21.5312451,12.0049921 21.6440648,12.0071284 C21.8110468,12.0104217 21.9764266,12.0227495 22.1411835,12.0385043 C22.2721611,12.0510101 22.4019816,12.0668093 22.5309565,12.08697 C22.6983391,12.1131388 22.8646535,12.1430016 23.0283422,12.1817207 C23.1353762,12.2070884 23.2404075,12.2377967 23.3454834,12.268327 C23.4710314,12.304732 23.5949773,12.3447418 23.7175435,12.388401 C23.823821,12.4263191 23.9301875,12.4639257 24.0338392,12.5070508 C24.1681546,12.5628598 24.2983757,12.6263682 24.4281072,12.6908111 C24.5754181,12.7640215 24.7189906,12.8426616 24.8595367,12.9264641 C24.9769849,12.9965146 25.093899,13.0670993 25.2063181,13.1444041 C25.2978644,13.2072449 25.385895,13.2743136 25.4737475,13.3416939 C25.5790013,13.4226036 25.6813179,13.5068957 25.7810086,13.5943031 C25.8555097,13.6594136 25.9309452,13.7235006 26.0021085,13.7919935 C26.1624148,13.9468701 26.3166239,14.1080666 26.4589948,14.2800331 C26.4897031,14.3168831 26.5160054,14.3570709 26.5457792,14.3946775 C26.6685679,14.5505333 26.7845029,14.7121303 26.891359,14.8805364 C27.1736529,15.3230922 27.4016065,15.8018303 27.5527448,16.3152822 C27.6478071,16.6360728 27.9511518,16.8532563 28.2819115,16.8379466 L28.3969119,16.8315379 C28.4360761,16.8290456 28.4748843,16.8261974 28.5147606,16.8261974 C31.2865196,16.8261974 33.541667,18.9389293 33.541667,21.5362295 C33.5416667,24.1331736 31.2865194,26.2462616 28.5147603,26.2462616 Z" id="Shape" fill-rule="nonzero"></path>
                    </g>
                </g>
            </g>
        </g>
    </g>
</svg>